<svg id="b8fe822c-5943-4301-a17b-d617803e9f56" data-name="Layer 1" xmlns="http://www.w3.org/2000/svg" xmlns:xlink="http://www.w3.org/1999/xlink" width="514.26" height="218.5" viewBox="0 0 514.26 218.5">
  <defs>
    <style>
      .fc1e2299-5821-42ac-b74d-391eb78802bb {
        fill: none;
      }

      .bb3a54fa-3ffe-4cd8-9660-46ce27b8c66a, .bbb80932-d6db-4807-96ea-ba4ced1e41bf {
        fill: #393d41;
      }

      .b3cf0610-f4d0-4c0e-a6eb-2c59d36d07ca, .f4c3b0ed-18c3-4676-aa61-6410061925fd {
        fill: #fff;
      }

      .eab99f1a-7c3f-451a-b636-51b2fa3d6e9e {
        clip-path: url(#eec4066c-ab18-4db7-a4cd-98b10d3c3983);
      }

      .a4898b86-15bb-4815-8ded-05d4d48b3662 {
        clip-path: url(#a02e85d9-1244-4d6a-a96c-0d3384a7aa40);
      }

      .e5489d55-fcbb-4618-b103-23ed3a64d1a5 {
        clip-path: url(#a4184da7-8b8c-47ee-85a0-c594ec7473e4);
      }

      .a0a903b0-8e08-4ee4-a9cc-4ae0848dbe65 {
        clip-path: url(#f99638af-7a16-415f-ba4a-acf4b6c75d0c);
      }

      .f4c3b0ed-18c3-4676-aa61-6410061925fd {
        stroke: #393d41;
      }

      .bb3a54fa-3ffe-4cd8-9660-46ce27b8c66a, .f4c3b0ed-18c3-4676-aa61-6410061925fd {
        stroke-miterlimit: 10;
      }

      .bb3a54fa-3ffe-4cd8-9660-46ce27b8c66a {
        stroke: #fff;
      }
    </style>
    <clipPath id="eec4066c-ab18-4db7-a4cd-98b10d3c3983">
      <rect class="fc1e2299-5821-42ac-b74d-391eb78802bb" x="305.02" y="20.16" width="53.53" height="80.64"/>
    </clipPath>
    <clipPath id="a02e85d9-1244-4d6a-a96c-0d3384a7aa40">
      <rect class="fc1e2299-5821-42ac-b74d-391eb78802bb" x="314.47" y="26.13" width="34.64" height="65.71"/>
    </clipPath>
    <clipPath id="a4184da7-8b8c-47ee-85a0-c594ec7473e4">
      <rect class="fc1e2299-5821-42ac-b74d-391eb78802bb" x="305.02" y="100.8" width="53.53" height="73.25"/>
    </clipPath>
    <clipPath id="f99638af-7a16-415f-ba4a-acf4b6c75d0c">
      <rect class="fc1e2299-5821-42ac-b74d-391eb78802bb" x="313.47" y="106.44" width="36.63" height="50.71"/>
    </clipPath>
  </defs>
  <rect class="bbb80932-d6db-4807-96ea-ba4ced1e41bf" x="257.13" width="257.13" height="218.5"/>
  <g>
    <g>
      <rect class="bbb80932-d6db-4807-96ea-ba4ced1e41bf" x="11.49" y="86.64" width="89.9" height="28.33" rx="12"/>
      <g>
        <path class="b3cf0610-f4d0-4c0e-a6eb-2c59d36d07ca" d="M38.56,97.17a12.57,12.57,0,0,1,2-.15,3.34,3.34,0,0,1,2.27.67,2.17,2.17,0,0,1,.7,1.69,2.38,2.38,0,0,1-.62,1.73,3.38,3.38,0,0,1-2.47.89,3.58,3.58,0,0,1-.84-.08v3.24h-1Zm1,3.9a3.49,3.49,0,0,0,.86.09c1.26,0,2-.62,2-1.73s-.75-1.58-1.91-1.58a4.32,4.32,0,0,0-1,.08Z"/>
        <path class="b3cf0610-f4d0-4c0e-a6eb-2c59d36d07ca" d="M44.71,101.17c0-.69,0-1.27,0-1.81h.92l0,1.14h.05a1.76,1.76,0,0,1,1.61-1.28,1.36,1.36,0,0,1,.3,0v1a1.32,1.32,0,0,0-.36,0,1.49,1.49,0,0,0-1.42,1.36,3.47,3.47,0,0,0,0,.49v3.09h-1Z"/>
        <path class="b3cf0610-f4d0-4c0e-a6eb-2c59d36d07ca" d="M49.11,102.45a1.86,1.86,0,0,0,2,2,3.91,3.91,0,0,0,1.6-.3l.18.75a4.63,4.63,0,0,1-1.93.36,2.69,2.69,0,0,1-2.85-2.93c0-1.75,1-3.13,2.72-3.13a2.46,2.46,0,0,1,2.4,2.74,4.35,4.35,0,0,1,0,.49Zm3.09-.76A1.5,1.5,0,0,0,50.74,100a1.74,1.74,0,0,0-1.62,1.71Z"/>
        <path class="b3cf0610-f4d0-4c0e-a6eb-2c59d36d07ca" d="M55.8,97.69v1.67h1.51v.8H55.8v3.13c0,.72.2,1.13.79,1.13a2.6,2.6,0,0,0,.61-.07l0,.79a2.67,2.67,0,0,1-.93.14,1.44,1.44,0,0,1-1.14-.44,2.15,2.15,0,0,1-.41-1.51v-3.17h-.9v-.8h.9V98Z"/>
        <path class="b3cf0610-f4d0-4c0e-a6eb-2c59d36d07ca" d="M59,102.45a1.86,1.86,0,0,0,2,2,3.91,3.91,0,0,0,1.6-.3l.18.75a4.63,4.63,0,0,1-1.93.36A2.69,2.69,0,0,1,58,102.35c0-1.75,1-3.13,2.72-3.13a2.46,2.46,0,0,1,2.4,2.74,2.81,2.81,0,0,1,0,.49Zm3.09-.76A1.5,1.5,0,0,0,60.65,100,1.74,1.74,0,0,0,59,101.69Z"/>
        <path class="b3cf0610-f4d0-4c0e-a6eb-2c59d36d07ca" d="M64.3,104.08a2.69,2.69,0,0,0,1.39.42c.77,0,1.13-.38,1.13-.86s-.3-.78-1.08-1.07c-1-.37-1.54-.95-1.54-1.64a1.79,1.79,0,0,1,2-1.71,2.91,2.91,0,0,1,1.43.36l-.26.77a2.32,2.32,0,0,0-1.19-.33c-.62,0-1,.36-1,.79s.35.69,1.1,1c1,.38,1.53.89,1.53,1.75,0,1-.8,1.74-2.18,1.74a3.33,3.33,0,0,1-1.63-.39Z"/>
        <path class="b3cf0610-f4d0-4c0e-a6eb-2c59d36d07ca" d="M70.46,97.69v1.67H72v.8H70.46v3.13c0,.72.21,1.13.8,1.13a2.68,2.68,0,0,0,.61-.07l0,.79a2.73,2.73,0,0,1-.94.14,1.45,1.45,0,0,1-1.14-.44,2.15,2.15,0,0,1-.41-1.51v-3.17h-.9v-.8h.9V98Z"/>
      </g>
    </g>
    <g>
      <rect class="bbb80932-d6db-4807-96ea-ba4ced1e41bf" x="118.56" y="86.64" width="89.9" height="28.33" rx="12"/>
      <g>
        <path class="b3cf0610-f4d0-4c0e-a6eb-2c59d36d07ca" d="M143.72,97.72a11.33,11.33,0,0,1,2-.16,3.3,3.3,0,0,1,2.26.67,2.18,2.18,0,0,1,.71,1.7,2.35,2.35,0,0,1-.62,1.72,3.34,3.34,0,0,1-2.47.89,3.61,3.61,0,0,1-.84-.07v3.24h-1Zm1,3.9a3.49,3.49,0,0,0,.86.08c1.26,0,2-.61,2-1.73s-.76-1.58-1.91-1.58a5,5,0,0,0-1,.08Z"/>
        <path class="b3cf0610-f4d0-4c0e-a6eb-2c59d36d07ca" d="M155,102.76a2.84,2.84,0,0,1-2.89,3.08,2.76,2.76,0,0,1-2.79-3,2.83,2.83,0,0,1,2.88-3.08A2.75,2.75,0,0,1,155,102.76Zm-4.61.06c0,1.27.73,2.23,1.76,2.23s1.77-1,1.77-2.26c0-1-.49-2.23-1.74-2.23S150.41,101.71,150.41,102.82Z"/>
        <path class="b3cf0610-f4d0-4c0e-a6eb-2c59d36d07ca" d="M156.21,104.63a2.79,2.79,0,0,0,1.39.42c.77,0,1.13-.39,1.13-.87s-.3-.78-1.08-1.06c-1.05-.38-1.54-1-1.54-1.65a1.79,1.79,0,0,1,2-1.7,2.91,2.91,0,0,1,1.43.36l-.26.77a2.22,2.22,0,0,0-1.19-.34c-.62,0-1,.36-1,.79s.35.7,1.1,1c1,.38,1.53.88,1.53,1.75s-.8,1.74-2.18,1.74a3.33,3.33,0,0,1-1.63-.4Z"/>
        <path class="b3cf0610-f4d0-4c0e-a6eb-2c59d36d07ca" d="M162.37,98.23V99.9h1.52v.8h-1.52v3.14c0,.71.21,1.12.8,1.12a2.21,2.21,0,0,0,.61-.07l.05.79a2.48,2.48,0,0,1-.94.15,1.46,1.46,0,0,1-1.14-.45,2.15,2.15,0,0,1-.41-1.51V100.7h-.9v-.8h.9V98.51Z"/>
        <path class="b3cf0610-f4d0-4c0e-a6eb-2c59d36d07ca" d="M166.35,98.23V99.9h1.51v.8h-1.51v3.14c0,.71.2,1.12.79,1.12a2.21,2.21,0,0,0,.61-.07l.05.79a2.48,2.48,0,0,1-.94.15,1.46,1.46,0,0,1-1.14-.45,2.15,2.15,0,0,1-.41-1.51V100.7h-.89v-.8h.89V98.51Z"/>
        <path class="b3cf0610-f4d0-4c0e-a6eb-2c59d36d07ca" d="M169.56,103a1.86,1.86,0,0,0,2,2,3.76,3.76,0,0,0,1.61-.3l.18.76a4.84,4.84,0,0,1-1.93.36,2.69,2.69,0,0,1-2.85-2.93c0-1.75,1-3.13,2.72-3.13a2.46,2.46,0,0,1,2.4,2.73,4.36,4.36,0,0,1,0,.5Zm3.1-.76a1.51,1.51,0,0,0-1.47-1.72,1.77,1.77,0,0,0-1.62,1.72Z"/>
        <path class="b3cf0610-f4d0-4c0e-a6eb-2c59d36d07ca" d="M174.84,104.63a2.82,2.82,0,0,0,1.39.42c.77,0,1.13-.39,1.13-.87s-.3-.78-1.08-1.06c-1-.38-1.53-1-1.53-1.65a1.79,1.79,0,0,1,2-1.7,2.94,2.94,0,0,1,1.43.36l-.27.77a2.15,2.15,0,0,0-1.18-.34c-.63,0-1,.36-1,.79s.35.7,1.11,1c1,.38,1.52.88,1.52,1.75s-.79,1.74-2.17,1.74a3.3,3.3,0,0,1-1.63-.4Z"/>
        <path class="b3cf0610-f4d0-4c0e-a6eb-2c59d36d07ca" d="M181,98.23V99.9h1.51v.8H181v3.14c0,.71.2,1.12.79,1.12a2.15,2.15,0,0,0,.61-.07l.05.79a2.42,2.42,0,0,1-.93.15,1.45,1.45,0,0,1-1.14-.45,2.15,2.15,0,0,1-.41-1.51V100.7h-.9v-.8h.9V98.51Z"/>
      </g>
    </g>
    <path class="bbb80932-d6db-4807-96ea-ba4ced1e41bf" d="M110.8,98.78v2.82h2.71v.72H110.8v2.84H110v-2.84h-2.71v-.72H110V98.78Z"/>
  </g>
  <g class="eab99f1a-7c3f-451a-b636-51b2fa3d6e9e">
    <g class="a4898b86-15bb-4815-8ded-05d4d48b3662">
      <path class="b3cf0610-f4d0-4c0e-a6eb-2c59d36d07ca" d="M316.5,58.57c-.87,0-1.31-.18-1.31-.56a6.62,6.62,0,0,1,1-2.86,24.18,24.18,0,0,1,2.63-3.79,13.15,13.15,0,0,1,4.13-3.3A12,12,0,0,1,328,46.63a21.35,21.35,0,0,1,2.16.06,8.72,8.72,0,0,1,5.19,3.36,23.75,23.75,0,0,1,3.47,8.15,25.37,25.37,0,0,1,.92,5.29c0,.17,0,.25.07.25l.79-1.68q1.31-3.18,2.95-6.66t2.82-5.66a19.19,19.19,0,0,1,1.44-2.43,4.59,4.59,0,0,1,1-.06h.85c.27.25.4.43.4.56a17,17,0,0,1-1.38,2.74q-1.38,2.49-3.87,7.9t-4.72,11.2a21.77,21.77,0,0,0-.86,4,63.44,63.44,0,0,1-1.37,6.6,36.41,36.41,0,0,1-1.78,5.6q-.72,1.56-1.77,1.62t-1.11-1.74q0-3.12,3.54-13.69l.39-1.19.07-1.12c0-.41.07-1,.07-1.92q0-9.78-3.74-13.51A9,9,0,0,0,327.32,52a10.77,10.77,0,0,0-5.77,1.62,9.07,9.07,0,0,0-3.74,4.29c-.09.37-.17.56-.26.56A2.37,2.37,0,0,1,316.5,58.57Z"/>
      <path class="b3cf0610-f4d0-4c0e-a6eb-2c59d36d07ca" d="M324.24,40.34l9-8.34.52.5q8.53,7.72,8.53,7.84l-1.7,1.81q-.13-.06-3.81-3.11l-3.48-2.87-3.6,2.93c-.57.45-1.14.93-1.71,1.43s-1,.89-1.38,1.18l-.52.37q-.13.14-1-.87Z"/>
    </g>
  </g>
  <g class="e5489d55-fcbb-4618-b103-23ed3a64d1a5">
    <g class="a0a903b0-8e08-4ee4-a9cc-4ae0848dbe65">
      <path class="b3cf0610-f4d0-4c0e-a6eb-2c59d36d07ca" d="M325.68,150.12a14.55,14.55,0,0,0,5.75-1.23,15.48,15.48,0,0,0,4.28-2.52l1.41-1.29q-.12-8.4-.41-10.45-.82-6.75-5.4-6.74c-2.7,0-5.07,1.42-7.1,4.28a19.86,19.86,0,0,0-2.58,6.34,30.67,30.67,0,0,0-1.06,6.1,5.27,5.27,0,0,0,1.47,4.16A5.56,5.56,0,0,0,325.68,150.12Zm-10.21-7.62a16.11,16.11,0,0,1,5-11.74q5.06-5,11.09-5a9.14,9.14,0,0,1,6.57,2.35,11.88,11.88,0,0,1,3.35,5.75,23.16,23.16,0,0,1,.41,3.93v1.7a34.7,34.7,0,0,0,4.4-9.74,2.91,2.91,0,0,1,.35-.93,2.12,2.12,0,0,1,.94-.18c.82,0,1.23.16,1.23.47a10.39,10.39,0,0,1-.53,2.29,35,35,0,0,1-2.11,5,36,36,0,0,1-3.58,5.87L342,143l.06,1.41a20.93,20.93,0,0,0,.46,4.46c.24.78.61,1.19,1.12,1.23a3.25,3.25,0,0,0,1.52-.64,2.8,2.8,0,0,0,1-1.35c.08-.28.18-.43.3-.47a4.93,4.93,0,0,1,.88-.12c.78,0,1.17.16,1.17.47a3.19,3.19,0,0,1-.35,1.12,5.88,5.88,0,0,1-4.64,3.1h-.41c-2.62,0-4.4-1.4-5.34-4.22l-.17-.41-.65.47a17.64,17.64,0,0,1-1.76,1.17,23.12,23.12,0,0,1-2.64,1.35,25.68,25.68,0,0,1-3.4,1.18,14.36,14.36,0,0,1-3.76.52,9.26,9.26,0,0,1-7.27-2.93A9.93,9.93,0,0,1,315.47,142.5Z"/>
      <path class="b3cf0610-f4d0-4c0e-a6eb-2c59d36d07ca" d="M325.73,119.79l8-7.86.47.47q7.63,7.27,7.63,7.39l-1.53,1.7c-.07,0-1.21-1-3.4-2.93l-3.11-2.7-3.23,2.76c-.5.43-1,.88-1.52,1.34s-.92.85-1.23,1.12l-.47.35c-.08.08-.37-.19-.88-.82Z"/>
    </g>
  </g>
  <g>
    <rect class="f4c3b0ed-18c3-4676-aa61-6410061925fd" x="213.49" y="96.44" width="87.64" height="8.72" rx="4.36"/>
    <path class="b3cf0610-f4d0-4c0e-a6eb-2c59d36d07ca" d="M285.43,95.51,297.19,102l1.68.93a2.5,2.5,0,1,0,2.52-4.32l-11.76-6.51L288,91.2a2.5,2.5,0,1,0-2.52,4.31Z"/>
    <path class="b3cf0610-f4d0-4c0e-a6eb-2c59d36d07ca" d="M287.38,110.84l12-7,1.73-1a2.5,2.5,0,1,0-2.53-4.31l-12,6.94-1.73,1a2.5,2.5,0,0,0,2.53,4.32Z"/>
  </g>
  <g>
    <rect class="bb3a54fa-3ffe-4cd8-9660-46ce27b8c66a" x="369.41" y="31.6" width="43.86" height="59.94"/>
    <g>
      <path class="b3cf0610-f4d0-4c0e-a6eb-2c59d36d07ca" d="M377.86,37.24c0,.42-.05.89-.05,1.6v3.37a3.36,3.36,0,0,1-.82,2.65,3.12,3.12,0,0,1-2.11.69,3.79,3.79,0,0,1-1.94-.48l.27-.8a3.25,3.25,0,0,0,1.7.45c1.08,0,1.87-.56,1.87-2v-.65h0a2.08,2.08,0,0,1-1.85,1,2.59,2.59,0,0,1-2.47-2.83,2.78,2.78,0,0,1,2.61-3.08,2,2,0,0,1,1.82,1h0l.05-.88Zm-1.09,2.29a1.47,1.47,0,0,0-.06-.48,1.52,1.52,0,0,0-1.48-1.11c-1,0-1.72.85-1.72,2.19,0,1.14.57,2.09,1.71,2.09a1.55,1.55,0,0,0,1.47-1.08,1.87,1.87,0,0,0,.08-.57Z"/>
      <path class="b3cf0610-f4d0-4c0e-a6eb-2c59d36d07ca" d="M382.78,43.05l-.08-.74h0a2.15,2.15,0,0,1-1.77.87,1.66,1.66,0,0,1-1.78-1.67c0-1.4,1.25-2.17,3.49-2.16v-.12a1.19,1.19,0,0,0-1.32-1.34,2.93,2.93,0,0,0-1.51.43l-.24-.7a3.63,3.63,0,0,1,1.91-.51c1.77,0,2.21,1.21,2.21,2.37v2.17a8.52,8.52,0,0,0,.09,1.4Zm-.15-3c-1.16,0-2.46.18-2.46,1.31a.93.93,0,0,0,1,1,1.45,1.45,0,0,0,1.41-1,1.35,1.35,0,0,0,.06-.34Z"/>
      <path class="b3cf0610-f4d0-4c0e-a6eb-2c59d36d07ca" d="M385.35,38.81c0-.6,0-1.09-.05-1.57h.93l0,.94h0a2,2,0,0,1,1.82-1.07,1.72,1.72,0,0,1,1.65,1.16h0a2.42,2.42,0,0,1,.65-.75,2,2,0,0,1,1.28-.41c.77,0,1.91.5,1.91,2.52v3.42h-1V39.76c0-1.12-.41-1.79-1.26-1.79a1.38,1.38,0,0,0-1.25,1,1.74,1.74,0,0,0-.08.53v3.59h-1V39.57c0-.93-.41-1.6-1.22-1.6a1.45,1.45,0,0,0-1.3,1.06,1.4,1.4,0,0,0-.09.51v3.51h-1Z"/>
      <path class="b3cf0610-f4d0-4c0e-a6eb-2c59d36d07ca" d="M395.36,38.81c0-.6,0-1.09-.05-1.57h.93l0,.94h0a2,2,0,0,1,1.82-1.07,1.74,1.74,0,0,1,1.65,1.16h0a2.42,2.42,0,0,1,.65-.75,1.93,1.93,0,0,1,1.28-.41c.77,0,1.91.5,1.91,2.52v3.42h-1V39.76c0-1.12-.41-1.79-1.26-1.79a1.38,1.38,0,0,0-1.25,1,1.74,1.74,0,0,0-.08.53v3.59h-1V39.57c0-.93-.4-1.6-1.21-1.6a1.43,1.43,0,0,0-1.3,1.06,1.4,1.4,0,0,0-.09.51v3.51h-1Z"/>
      <path class="b3cf0610-f4d0-4c0e-a6eb-2c59d36d07ca" d="M408.58,43.05l-.08-.74h0a2.15,2.15,0,0,1-1.77.87,1.66,1.66,0,0,1-1.78-1.67c0-1.4,1.25-2.17,3.49-2.16v-.12a1.19,1.19,0,0,0-1.32-1.34,2.93,2.93,0,0,0-1.51.43l-.24-.7a3.63,3.63,0,0,1,1.91-.51c1.77,0,2.21,1.21,2.21,2.37v2.17a8.52,8.52,0,0,0,.09,1.4Zm-.15-3c-1.16,0-2.46.18-2.46,1.31a.93.93,0,0,0,1,1,1.45,1.45,0,0,0,1.41-1,1.35,1.35,0,0,0,.06-.34Z"/>
      <path class="b3cf0610-f4d0-4c0e-a6eb-2c59d36d07ca" d="M388.89,53.46c0,2.65-1,4.12-2.71,4.12-1.52,0-2.56-1.43-2.58-4s1.13-4,2.71-4S388.89,51,388.89,53.46Zm-4.23.12c0,2,.62,3.18,1.58,3.18s1.59-1.26,1.59-3.25-.49-3.18-1.58-3.18C385.33,50.33,384.66,51.46,384.66,53.58Z"/>
      <path class="b3cf0610-f4d0-4c0e-a6eb-2c59d36d07ca" d="M390,56.82a.71.71,0,0,1,.72-.75.7.7,0,0,1,.71.75.72.72,0,1,1-1.43,0Z"/>
      <path class="b3cf0610-f4d0-4c0e-a6eb-2c59d36d07ca" d="M396.8,50.39a3.8,3.8,0,0,0-.79,0,3.17,3.17,0,0,0-2.71,2.77h0a2.38,2.38,0,0,1,4.24,1.62,2.62,2.62,0,0,1-2.6,2.75c-1.66,0-2.75-1.3-2.75-3.33a4.89,4.89,0,0,1,1.32-3.51A4.25,4.25,0,0,1,396,49.59a4.84,4.84,0,0,1,.77-.06Zm-.3,4.5a1.59,1.59,0,0,0-1.61-1.79,1.74,1.74,0,0,0-1.51,1,.93.93,0,0,0-.12.47c0,1.28.61,2.23,1.71,2.23C395.89,56.76,396.5,56,396.5,54.89Z"/>
      <path class="b3cf0610-f4d0-4c0e-a6eb-2c59d36d07ca" d="M403.16,50.54h-3l-.3,2a4.75,4.75,0,0,1,.64,0,3.28,3.28,0,0,1,1.68.42,2.22,2.22,0,0,1,1.11,2,2.7,2.7,0,0,1-2.9,2.67,3.8,3.8,0,0,1-1.94-.48l.26-.81a3.42,3.42,0,0,0,1.67.44,1.73,1.73,0,0,0,1.85-1.7c0-1-.69-1.72-2.25-1.72a9.44,9.44,0,0,0-1.08.08l.51-3.74h3.73Z"/>
      <path class="b3cf0610-f4d0-4c0e-a6eb-2c59d36d07ca" d="M407.92,57.45V55.32H404.3v-.69l3.48-5h1.14V54.5H410v.82h-1.09v2.13Zm0-3V51.89c0-.41,0-.81,0-1.22h0c-.24.46-.43.79-.65,1.15l-1.9,2.65v0Z"/>
      <path class="b3cf0610-f4d0-4c0e-a6eb-2c59d36d07ca" d="M388.89,67.86c0,2.65-1,4.12-2.71,4.12-1.52,0-2.56-1.43-2.58-4s1.13-4,2.71-4S388.89,65.38,388.89,67.86Zm-4.23.12c0,2,.62,3.18,1.58,3.18s1.59-1.26,1.59-3.25-.49-3.18-1.58-3.18C385.33,64.73,384.66,65.86,384.66,68Z"/>
      <path class="b3cf0610-f4d0-4c0e-a6eb-2c59d36d07ca" d="M390,71.22a.71.71,0,0,1,.72-.75.7.7,0,0,1,.71.75.72.72,0,1,1-1.43,0Z"/>
      <path class="b3cf0610-f4d0-4c0e-a6eb-2c59d36d07ca" d="M395.61,71.85V69.72H392V69l3.48-5h1.14V68.9h1.09v.82h-1.09v2.13Zm0-2.95V66.29c0-.41,0-.81,0-1.22h0c-.24.45-.43.79-.65,1.15l-1.9,2.65v0Z"/>
      <path class="b3cf0610-f4d0-4c0e-a6eb-2c59d36d07ca" d="M403.16,64.94h-3l-.3,2a4.75,4.75,0,0,1,.64,0,3.28,3.28,0,0,1,1.68.42,2.22,2.22,0,0,1,1.11,2,2.7,2.7,0,0,1-2.9,2.67,3.8,3.8,0,0,1-1.94-.48l.26-.81a3.42,3.42,0,0,0,1.67.44,1.73,1.73,0,0,0,1.85-1.7c0-1-.69-1.72-2.25-1.72a9.44,9.44,0,0,0-1.08.08l.51-3.74h3.73Z"/>
      <path class="b3cf0610-f4d0-4c0e-a6eb-2c59d36d07ca" d="M409.72,64.05v.7l-3.39,7.1h-1.09l3.38-6.9v0H404.8v-.87Z"/>
      <path class="b3cf0610-f4d0-4c0e-a6eb-2c59d36d07ca" d="M388.89,82.26c0,2.65-1,4.12-2.71,4.12-1.52,0-2.56-1.43-2.58-4s1.13-4.05,2.71-4.05S388.89,79.78,388.89,82.26Zm-4.23.12c0,2,.62,3.18,1.58,3.18s1.59-1.26,1.59-3.25-.49-3.18-1.58-3.18C385.33,79.13,384.66,80.26,384.66,82.38Z"/>
      <path class="b3cf0610-f4d0-4c0e-a6eb-2c59d36d07ca" d="M390,85.62a.71.71,0,0,1,.72-.75.7.7,0,0,1,.71.75.72.72,0,1,1-1.43,0Z"/>
      <path class="b3cf0610-f4d0-4c0e-a6eb-2c59d36d07ca" d="M392.6,85a3.45,3.45,0,0,0,1.73.5c1.35,0,1.77-.87,1.76-1.52,0-1.09-1-1.55-2-1.55h-.59v-.8h.59c.76,0,1.73-.39,1.73-1.32,0-.62-.39-1.17-1.36-1.17a2.83,2.83,0,0,0-1.56.52l-.28-.77a3.71,3.71,0,0,1,2-.6c1.54,0,2.23.91,2.23,1.86A1.94,1.94,0,0,1,395.44,82v0a2,2,0,0,1,1.74,2c0,1.25-1,2.34-2.84,2.34a4,4,0,0,1-2-.53Z"/>
      <path class="b3cf0610-f4d0-4c0e-a6eb-2c59d36d07ca" d="M403.16,79.34h-3l-.3,2a4.75,4.75,0,0,1,.64,0,3.28,3.28,0,0,1,1.68.42,2.22,2.22,0,0,1,1.11,2,2.7,2.7,0,0,1-2.9,2.67,3.8,3.8,0,0,1-1.94-.48l.26-.81a3.42,3.42,0,0,0,1.67.44,1.73,1.73,0,0,0,1.85-1.69c0-1-.69-1.73-2.25-1.73a9.44,9.44,0,0,0-1.08.08l.51-3.74h3.73Z"/>
      <path class="b3cf0610-f4d0-4c0e-a6eb-2c59d36d07ca" d="M409.31,79.34h-3l-.3,2a4.72,4.72,0,0,1,.63,0,3.28,3.28,0,0,1,1.68.42,2.21,2.21,0,0,1,1.12,2,2.7,2.7,0,0,1-2.9,2.67,3.84,3.84,0,0,1-1.95-.48l.27-.81a3.37,3.37,0,0,0,1.66.44,1.72,1.72,0,0,0,1.85-1.69c0-1-.68-1.73-2.24-1.73a9.26,9.26,0,0,0-1.08.08l.5-3.74h3.73Z"/>
    </g>
  </g>
  <g>
    <path class="b3cf0610-f4d0-4c0e-a6eb-2c59d36d07ca" d="M421.75,33.89h.87v6h2.88v.73h-3.75Z"/>
    <path class="b3cf0610-f4d0-4c0e-a6eb-2c59d36d07ca" d="M426.79,38.36A1.55,1.55,0,0,0,428.45,40a3.18,3.18,0,0,0,1.34-.25l.15.63a3.92,3.92,0,0,1-1.61.3A2.25,2.25,0,0,1,426,38.28a2.34,2.34,0,0,1,2.27-2.6,2,2,0,0,1,2,2.27,3.32,3.32,0,0,1,0,.41Zm2.58-.63a1.25,1.25,0,0,0-1.22-1.43,1.46,1.46,0,0,0-1.35,1.43Z"/>
    <path class="b3cf0610-f4d0-4c0e-a6eb-2c59d36d07ca" d="M434,40.62l-.07-.61h0a1.8,1.8,0,0,1-1.48.72,1.38,1.38,0,0,1-1.48-1.39c0-1.17,1-1.81,2.91-1.8v-.1a1,1,0,0,0-1.1-1.12,2.41,2.41,0,0,0-1.26.36l-.2-.57a3,3,0,0,1,1.59-.43c1.48,0,1.84,1,1.84,2v1.81a6.81,6.81,0,0,0,.08,1.16Zm-.13-2.47c-1,0-2.05.15-2.05,1.09a.78.78,0,0,0,.83.84,1.2,1.2,0,0,0,1.17-.81.92.92,0,0,0,.05-.28Z"/>
    <path class="b3cf0610-f4d0-4c0e-a6eb-2c59d36d07ca" d="M436.13,37.29c0-.57,0-1.06,0-1.5h.77l0,.94h0a1.45,1.45,0,0,1,1.34-1,1,1,0,0,1,.25,0v.82a1.32,1.32,0,0,0-.3,0A1.23,1.23,0,0,0,437,37.63a2.48,2.48,0,0,0,0,.41v2.58h-.87Z"/>
    <path class="b3cf0610-f4d0-4c0e-a6eb-2c59d36d07ca" d="M439.44,37.09c0-.5,0-.9,0-1.3h.78l.05.8h0a1.78,1.78,0,0,1,1.6-.91c.67,0,1.71.4,1.71,2v2.89h-.88V37.83c0-.78-.29-1.43-1.12-1.43a1.25,1.25,0,0,0-1.18.9,1.27,1.27,0,0,0-.06.41v2.91h-.88Z"/>
    <path class="b3cf0610-f4d0-4c0e-a6eb-2c59d36d07ca" d="M446,34.43a.55.55,0,0,1-1.09,0,.54.54,0,0,1,.55-.55A.52.52,0,0,1,446,34.43Zm-1,6.19V35.79h.88v4.83Z"/>
    <path class="b3cf0610-f4d0-4c0e-a6eb-2c59d36d07ca" d="M447.33,37.09c0-.5,0-.9,0-1.3h.78l.05.8h0a1.78,1.78,0,0,1,1.6-.91c.67,0,1.71.4,1.71,2v2.89h-.88V37.83c0-.78-.29-1.43-1.12-1.43a1.25,1.25,0,0,0-1.18.9,1.27,1.27,0,0,0-.06.41v2.91h-.88Z"/>
    <path class="b3cf0610-f4d0-4c0e-a6eb-2c59d36d07ca" d="M457,35.79c0,.35,0,.73,0,1.32v2.81a2.78,2.78,0,0,1-.68,2.21,2.57,2.57,0,0,1-1.76.58,3.12,3.12,0,0,1-1.61-.4l.22-.67a2.73,2.73,0,0,0,1.42.38c.9,0,1.56-.47,1.56-1.69v-.54h0a1.7,1.7,0,0,1-1.53.81,2.16,2.16,0,0,1-2.06-2.36,2.32,2.32,0,0,1,2.18-2.56,1.6,1.6,0,0,1,1.5.83h0l0-.72Zm-.9,1.9a1.33,1.33,0,0,0-1.28-1.33c-.84,0-1.44.71-1.44,1.83,0,1,.48,1.74,1.43,1.74a1.29,1.29,0,0,0,1.22-.9,1.53,1.53,0,0,0,.07-.47Z"/>
    <path class="b3cf0610-f4d0-4c0e-a6eb-2c59d36d07ca" d="M458.26,36.59a.6.6,0,1,1,.59.61A.59.59,0,0,1,458.26,36.59Zm0,3.52a.6.6,0,1,1,1.19,0,.6.6,0,1,1-1.19,0Z"/>
    <path class="b3cf0610-f4d0-4c0e-a6eb-2c59d36d07ca" d="M427.08,50.5l-.7,2.12h-.9l2.29-6.73h1.05l2.3,6.73h-.93l-.72-2.12Zm2.21-.68-.66-1.93c-.15-.44-.25-.84-.35-1.23h0c-.1.4-.21.81-.34,1.22l-.66,1.94Z"/>
    <path class="b3cf0610-f4d0-4c0e-a6eb-2c59d36d07ca" d="M435.41,52.44a3.24,3.24,0,0,1-1.39.28,2.3,2.3,0,0,1-2.41-2.47,2.45,2.45,0,0,1,2.6-2.56,2.94,2.94,0,0,1,1.22.25l-.2.67a2,2,0,0,0-1-.23,1.82,1.82,0,0,0,0,3.64,2.5,2.5,0,0,0,1.08-.24Z"/>
    <path class="b3cf0610-f4d0-4c0e-a6eb-2c59d36d07ca" d="M439.83,52.44a3.24,3.24,0,0,1-1.39.28A2.3,2.3,0,0,1,436,50.25a2.45,2.45,0,0,1,2.6-2.56,2.94,2.94,0,0,1,1.22.25l-.2.67a2,2,0,0,0-1-.23,1.82,1.82,0,0,0,0,3.64,2.5,2.5,0,0,0,1.08-.24Z"/>
    <path class="b3cf0610-f4d0-4c0e-a6eb-2c59d36d07ca" d="M445.18,50.16a2.37,2.37,0,0,1-2.41,2.57,2.3,2.3,0,0,1-2.32-2.49,2.36,2.36,0,0,1,2.4-2.56A2.28,2.28,0,0,1,445.18,50.16Zm-3.84.05c0,1.06.61,1.86,1.47,1.86s1.47-.79,1.47-1.88c0-.82-.41-1.85-1.45-1.85S441.34,49.29,441.34,50.21Z"/>
    <path class="b3cf0610-f4d0-4c0e-a6eb-2c59d36d07ca" d="M450.34,51.3c0,.5,0,.94,0,1.32h-.78l-.05-.79h0a1.82,1.82,0,0,1-1.6.9c-.76,0-1.67-.42-1.67-2.12V47.79h.88v2.67c0,.92.28,1.54,1.08,1.54a1.27,1.27,0,0,0,1.16-.8,1.29,1.29,0,0,0,.08-.45v-3h.88Z"/>
    <path class="b3cf0610-f4d0-4c0e-a6eb-2c59d36d07ca" d="M451.8,49.09c0-.5,0-.9,0-1.3h.78l0,.8h0a1.78,1.78,0,0,1,1.6-.91c.67,0,1.71.4,1.71,2v2.89H455V49.83c0-.78-.29-1.43-1.12-1.43a1.25,1.25,0,0,0-1.18.9,1.27,1.27,0,0,0-.06.41v2.91h-.88Z"/>
    <path class="b3cf0610-f4d0-4c0e-a6eb-2c59d36d07ca" d="M458.37,46.4v1.39h1.26v.67h-1.26v2.6c0,.6.17.94.66.94a2,2,0,0,0,.51-.06l0,.66a2.15,2.15,0,0,1-.78.12,1.22,1.22,0,0,1-.95-.37,1.79,1.79,0,0,1-.34-1.26V48.46h-.75v-.67h.75V46.63Z"/>
    <path class="b3cf0610-f4d0-4c0e-a6eb-2c59d36d07ca" d="M461.6,46.43a.55.55,0,0,1-1.09,0,.54.54,0,0,1,.55-.55A.52.52,0,0,1,461.6,46.43Zm-1,6.19V47.79h.88v4.83Z"/>
    <path class="b3cf0610-f4d0-4c0e-a6eb-2c59d36d07ca" d="M463,49.09c0-.5,0-.9,0-1.3h.78l.05.8h0a1.78,1.78,0,0,1,1.6-.91c.67,0,1.71.4,1.71,2v2.89h-.88V49.83c0-.78-.29-1.43-1.12-1.43a1.25,1.25,0,0,0-1.18.9,1.27,1.27,0,0,0-.06.41v2.91H463Z"/>
    <path class="b3cf0610-f4d0-4c0e-a6eb-2c59d36d07ca" d="M472.68,47.79c0,.35,0,.73,0,1.32v2.81a2.78,2.78,0,0,1-.69,2.21,2.57,2.57,0,0,1-1.76.58,3.12,3.12,0,0,1-1.61-.4l.22-.67a2.73,2.73,0,0,0,1.42.38c.9,0,1.56-.47,1.56-1.69v-.54h0a1.73,1.73,0,0,1-1.54.81,2.16,2.16,0,0,1-2.06-2.36,2.32,2.32,0,0,1,2.18-2.56,1.62,1.62,0,0,1,1.51.83h0l0-.72Zm-.91,1.9a1.25,1.25,0,0,0,0-.4,1.27,1.27,0,0,0-1.23-.93c-.84,0-1.44.71-1.44,1.83,0,1,.48,1.74,1.43,1.74a1.29,1.29,0,0,0,1.22-.9,1.53,1.53,0,0,0,.07-.47Z"/>
    <path class="b3cf0610-f4d0-4c0e-a6eb-2c59d36d07ca" d="M426.05,64.62V60.46h-.68v-.67h.68v-.23a2.28,2.28,0,0,1,.56-1.69,1.68,1.68,0,0,1,1.18-.45,2,2,0,0,1,.75.14l-.12.68a1.31,1.31,0,0,0-.56-.11c-.75,0-.94.66-.94,1.4v.26h1.17v.67h-1.17v4.16Z"/>
    <path class="b3cf0610-f4d0-4c0e-a6eb-2c59d36d07ca" d="M433.13,62.16a2.37,2.37,0,0,1-2.41,2.57,2.3,2.3,0,0,1-2.32-2.49,2.36,2.36,0,0,1,2.4-2.56A2.28,2.28,0,0,1,433.13,62.16Zm-3.84.05c0,1.06.61,1.86,1.47,1.86s1.47-.79,1.47-1.88c0-.82-.41-1.85-1.45-1.85S429.29,61.29,429.29,62.21Z"/>
    <path class="b3cf0610-f4d0-4c0e-a6eb-2c59d36d07ca" d="M434.24,61.29c0-.57,0-1.06,0-1.5H435l0,.94h0a1.45,1.45,0,0,1,1.34-1,1,1,0,0,1,.25,0v.82a1.32,1.32,0,0,0-.3,0,1.23,1.23,0,0,0-1.18,1.13,2.48,2.48,0,0,0,0,.41v2.58h-.87Z"/>
    <path class="b3cf0610-f4d0-4c0e-a6eb-2c59d36d07ca" d="M443.8,59.79c0,.35,0,.73,0,1.32v2.81a2.78,2.78,0,0,1-.69,2.21,2.57,2.57,0,0,1-1.76.58,3.12,3.12,0,0,1-1.61-.4l.22-.67a2.73,2.73,0,0,0,1.42.38c.9,0,1.56-.47,1.56-1.69v-.54h0a1.73,1.73,0,0,1-1.54.81,2.16,2.16,0,0,1-2.06-2.36,2.32,2.32,0,0,1,2.18-2.56,1.62,1.62,0,0,1,1.51.83h0l0-.72Zm-.91,1.9a1.25,1.25,0,0,0-.05-.4,1.27,1.27,0,0,0-1.23-.93c-.84,0-1.44.71-1.44,1.83,0,1,.48,1.74,1.43,1.74a1.29,1.29,0,0,0,1.22-.9,1.53,1.53,0,0,0,.07-.47Z"/>
    <path class="b3cf0610-f4d0-4c0e-a6eb-2c59d36d07ca" d="M449.27,63.3c0,.5,0,.94,0,1.32h-.78l0-.79h0a1.82,1.82,0,0,1-1.6.9c-.76,0-1.67-.42-1.67-2.12V59.79h.88v2.67c0,.92.28,1.54,1.08,1.54a1.27,1.27,0,0,0,1.16-.8,1.29,1.29,0,0,0,.08-.45v-3h.88Z"/>
    <path class="b3cf0610-f4d0-4c0e-a6eb-2c59d36d07ca" d="M451.22,62.36A1.55,1.55,0,0,0,452.88,64a3.18,3.18,0,0,0,1.34-.25l.15.63a3.92,3.92,0,0,1-1.61.3,2.25,2.25,0,0,1-2.38-2.44,2.34,2.34,0,0,1,2.27-2.6,2,2,0,0,1,2,2.27,3.32,3.32,0,0,1,0,.41Zm2.58-.63a1.25,1.25,0,0,0-1.22-1.43,1.46,1.46,0,0,0-1.35,1.43Z"/>
    <path class="b3cf0610-f4d0-4c0e-a6eb-2c59d36d07ca" d="M455.62,63.72a2.31,2.31,0,0,0,1.16.35c.64,0,.94-.32.94-.72s-.25-.65-.9-.89c-.87-.31-1.28-.79-1.28-1.37a1.49,1.49,0,0,1,1.67-1.41,2.42,2.42,0,0,1,1.19.3l-.22.63a1.89,1.89,0,0,0-1-.27c-.52,0-.81.29-.81.65s.29.58.92.82c.84.32,1.27.74,1.27,1.46s-.66,1.45-1.81,1.45a2.76,2.76,0,0,1-1.36-.33Z"/>
    <path class="b3cf0610-f4d0-4c0e-a6eb-2c59d36d07ca" d="M459.58,63.72a2.31,2.31,0,0,0,1.16.35c.64,0,.94-.32.94-.72s-.25-.65-.9-.89c-.87-.31-1.28-.79-1.28-1.37a1.49,1.49,0,0,1,1.67-1.41,2.42,2.42,0,0,1,1.19.3l-.22.63a1.89,1.89,0,0,0-1-.27c-.52,0-.81.29-.81.65s.29.58.92.82c.84.32,1.27.74,1.27,1.46s-.66,1.45-1.81,1.45a2.76,2.76,0,0,1-1.36-.33Z"/>
    <path class="b3cf0610-f4d0-4c0e-a6eb-2c59d36d07ca" d="M464.64,58.43a.55.55,0,0,1-1.09,0,.54.54,0,0,1,.55-.55A.52.52,0,0,1,464.64,58.43Zm-1,6.19V59.79h.88v4.83Z"/>
    <path class="b3cf0610-f4d0-4c0e-a6eb-2c59d36d07ca" d="M466,61.09c0-.5,0-.9,0-1.3h.78l.05.8h0a1.78,1.78,0,0,1,1.6-.91c.67,0,1.71.4,1.71,2v2.89h-.88V61.83c0-.78-.29-1.43-1.12-1.43a1.25,1.25,0,0,0-1.18.9,1.27,1.27,0,0,0-.06.41v2.91H466Z"/>
    <path class="b3cf0610-f4d0-4c0e-a6eb-2c59d36d07ca" d="M475.71,59.79c0,.35,0,.73,0,1.32v2.81a2.78,2.78,0,0,1-.68,2.21,2.57,2.57,0,0,1-1.76.58,3.12,3.12,0,0,1-1.61-.4l.22-.67a2.73,2.73,0,0,0,1.42.38c.9,0,1.56-.47,1.56-1.69v-.54h0a1.7,1.7,0,0,1-1.53.81,2.16,2.16,0,0,1-2.06-2.36,2.32,2.32,0,0,1,2.18-2.56,1.6,1.6,0,0,1,1.5.83h0l0-.72Zm-.9,1.9a1.33,1.33,0,0,0-1.28-1.33c-.84,0-1.44.71-1.44,1.83,0,1,.48,1.74,1.43,1.74a1.3,1.3,0,0,0,1.22-.9,1.53,1.53,0,0,0,.07-.47Z"/>
    <path class="b3cf0610-f4d0-4c0e-a6eb-2c59d36d07ca" d="M481.94,64.62l-.07-.61h0a1.8,1.8,0,0,1-1.48.72,1.38,1.38,0,0,1-1.48-1.39c0-1.17,1-1.81,2.91-1.8v-.1a1,1,0,0,0-1.1-1.12,2.41,2.41,0,0,0-1.26.36l-.2-.57a3,3,0,0,1,1.59-.43c1.47,0,1.84,1,1.84,2v1.81a5.92,5.92,0,0,0,.08,1.16Zm-.13-2.47c-1,0-2.05.15-2.05,1.09a.78.78,0,0,0,.83.84,1.2,1.2,0,0,0,1.17-.81.92.92,0,0,0,.05-.28Z"/>
    <path class="b3cf0610-f4d0-4c0e-a6eb-2c59d36d07ca" d="M484.08,61.09c0-.5,0-.9,0-1.3h.78l.05.8h0a1.78,1.78,0,0,1,1.6-.91c.67,0,1.71.4,1.71,2v2.89h-.88V61.83c0-.78-.29-1.43-1.12-1.43a1.25,1.25,0,0,0-1.18.9,1.27,1.27,0,0,0-.06.41v2.91h-.88Z"/>
    <path class="b3cf0610-f4d0-4c0e-a6eb-2c59d36d07ca" d="M493.8,57.53v5.84c0,.43,0,.92,0,1.25h-.78l0-.84h0a1.79,1.79,0,0,1-1.65,1,2.21,2.21,0,0,1-2.07-2.46,2.31,2.31,0,0,1,2.17-2.59,1.6,1.6,0,0,1,1.46.74h0V57.53Zm-.88,4.22a1.54,1.54,0,0,0,0-.37,1.3,1.3,0,0,0-1.27-1c-.91,0-1.45.8-1.45,1.87S490.65,64,491.6,64a1.32,1.32,0,0,0,1.29-1,1.54,1.54,0,0,0,0-.38Z"/>
    <path class="b3cf0610-f4d0-4c0e-a6eb-2c59d36d07ca" d="M426,73.36c0-.62,0-1.11,0-1.57h.79l0,.82h0a1.89,1.89,0,0,1,1.72-.93,2.18,2.18,0,0,1,2.05,2.45c0,1.74-1.06,2.6-2.2,2.6a1.7,1.7,0,0,1-1.49-.76h0V78.6H426Zm.87,1.29a2,2,0,0,0,0,.36,1.36,1.36,0,0,0,1.32,1c.93,0,1.47-.76,1.47-1.87s-.51-1.79-1.44-1.79a1.39,1.39,0,0,0-1.33,1.08,1.43,1.43,0,0,0-.06.36Z"/>
    <path class="b3cf0610-f4d0-4c0e-a6eb-2c59d36d07ca" d="M431.65,73.29c0-.57,0-1.06,0-1.5h.77l0,.94h0a1.45,1.45,0,0,1,1.34-1,1,1,0,0,1,.25,0v.82a1.32,1.32,0,0,0-.3,0,1.23,1.23,0,0,0-1.18,1.13,2.48,2.48,0,0,0,0,.41v2.58h-.87Z"/>
    <path class="b3cf0610-f4d0-4c0e-a6eb-2c59d36d07ca" d="M435.94,70.43a.55.55,0,0,1-1.09,0,.54.54,0,0,1,.55-.55A.52.52,0,0,1,435.94,70.43Zm-1,6.19V71.79h.88v4.83Z"/>
    <path class="b3cf0610-f4d0-4c0e-a6eb-2c59d36d07ca" d="M441.67,74.16a2.36,2.36,0,0,1-2.4,2.57A2.3,2.3,0,0,1,437,74.24a2.36,2.36,0,0,1,2.4-2.56A2.28,2.28,0,0,1,441.67,74.16Zm-3.83,0c0,1.06.61,1.86,1.47,1.86s1.47-.79,1.47-1.88c0-.82-.41-1.85-1.45-1.85S437.84,73.29,437.84,74.21Z"/>
    <path class="b3cf0610-f4d0-4c0e-a6eb-2c59d36d07ca" d="M442.79,73.29c0-.57,0-1.06,0-1.5h.77l0,.94h0a1.45,1.45,0,0,1,1.34-1,1,1,0,0,1,.25,0v.82a1.32,1.32,0,0,0-.3,0,1.23,1.23,0,0,0-1.18,1.13,2.48,2.48,0,0,0,0,.41v2.58h-.87Z"/>
    <path class="b3cf0610-f4d0-4c0e-a6eb-2c59d36d07ca" d="M449.05,74h0c.12-.17.29-.38.43-.55l1.42-1.66H452l-1.86,2,2.12,2.85h-1.06L449.5,74.3l-.45.5v1.82h-.87V69.53h.87Z"/>
    <path class="b3cf0610-f4d0-4c0e-a6eb-2c59d36d07ca" d="M453,73.09c0-.5,0-.9,0-1.3h.78l.05.8h0a1.78,1.78,0,0,1,1.6-.91c.67,0,1.71.4,1.71,2v2.89h-.88V73.83c0-.78-.29-1.43-1.12-1.43a1.25,1.25,0,0,0-1.18.9,1.27,1.27,0,0,0-.06.41v2.91H453Z"/>
    <path class="b3cf0610-f4d0-4c0e-a6eb-2c59d36d07ca" d="M463,74.16a2.36,2.36,0,0,1-2.4,2.57,2.3,2.3,0,0,1-2.32-2.49,2.36,2.36,0,0,1,2.4-2.56A2.28,2.28,0,0,1,463,74.16Zm-3.83,0c0,1.06.61,1.86,1.47,1.86s1.47-.79,1.47-1.88c0-.82-.41-1.85-1.45-1.85S459.13,73.29,459.13,74.21Z"/>
    <path class="b3cf0610-f4d0-4c0e-a6eb-2c59d36d07ca" d="M464.36,71.79l.64,2.45c.14.54.27,1,.36,1.54h0c.11-.49.27-1,.43-1.53l.79-2.46h.73l.75,2.41c.18.58.32,1.09.43,1.58h0a14.55,14.55,0,0,1,.37-1.57l.69-2.42h.87l-1.56,4.83h-.8l-.74-2.31a16.11,16.11,0,0,1-.42-1.59h0a14.32,14.32,0,0,1-.44,1.6l-.78,2.3h-.8l-1.46-4.83Z"/>
    <path class="b3cf0610-f4d0-4c0e-a6eb-2c59d36d07ca" d="M471.37,69.53h.88v7.09h-.88Z"/>
    <path class="b3cf0610-f4d0-4c0e-a6eb-2c59d36d07ca" d="M474.22,74.36A1.55,1.55,0,0,0,475.88,76a3.16,3.16,0,0,0,1.33-.25l.15.63a3.86,3.86,0,0,1-1.6.3,2.25,2.25,0,0,1-2.38-2.44,2.34,2.34,0,0,1,2.27-2.6,2,2,0,0,1,2,2.27,3.32,3.32,0,0,1,0,.41Zm2.57-.63a1.25,1.25,0,0,0-1.21-1.43,1.46,1.46,0,0,0-1.35,1.43Z"/>
    <path class="b3cf0610-f4d0-4c0e-a6eb-2c59d36d07ca" d="M482.91,69.53v5.84c0,.43,0,.92,0,1.25h-.78l-.05-.84h0a1.77,1.77,0,0,1-1.64,1,2.21,2.21,0,0,1-2.07-2.46,2.31,2.31,0,0,1,2.17-2.59,1.59,1.59,0,0,1,1.45.74h0V69.53ZM482,73.75a2.31,2.31,0,0,0,0-.37,1.31,1.31,0,0,0-1.27-1c-.91,0-1.45.8-1.45,1.87s.48,1.79,1.43,1.79A1.34,1.34,0,0,0,482,75a2.25,2.25,0,0,0,0-.38Z"/>
    <path class="b3cf0610-f4d0-4c0e-a6eb-2c59d36d07ca" d="M488.54,71.79c0,.35,0,.73,0,1.32v2.81a2.78,2.78,0,0,1-.68,2.21,2.57,2.57,0,0,1-1.76.58,3.12,3.12,0,0,1-1.61-.4l.22-.67a2.73,2.73,0,0,0,1.42.38c.9,0,1.56-.47,1.56-1.69v-.54h0a1.7,1.7,0,0,1-1.53.81A2.16,2.16,0,0,1,484,74.24a2.32,2.32,0,0,1,2.18-2.56,1.6,1.6,0,0,1,1.5.83h0l0-.72Zm-.9,1.9a1.33,1.33,0,0,0-1.28-1.33c-.84,0-1.44.71-1.44,1.83,0,1,.48,1.74,1.43,1.74a1.29,1.29,0,0,0,1.22-.9,1.53,1.53,0,0,0,.07-.47Z"/>
    <path class="b3cf0610-f4d0-4c0e-a6eb-2c59d36d07ca" d="M490.46,74.36A1.55,1.55,0,0,0,492.12,76a3.22,3.22,0,0,0,1.34-.25l.14.63a3.86,3.86,0,0,1-1.6.3,2.25,2.25,0,0,1-2.38-2.44,2.34,2.34,0,0,1,2.27-2.6,2,2,0,0,1,2,2.27,2.07,2.07,0,0,1,0,.41Zm2.58-.63a1.26,1.26,0,0,0-1.22-1.43,1.46,1.46,0,0,0-1.35,1.43Z"/>
    <path class="b3cf0610-f4d0-4c0e-a6eb-2c59d36d07ca" d="M494.65,76.1a.59.59,0,0,1,.6-.63.63.63,0,1,1-.6.63Z"/>
    <path class="b3cf0610-f4d0-4c0e-a6eb-2c59d36d07ca" d="M426.86,81.89V84.7h3.26V81.89H431v6.73h-.88V85.46h-3.26v3.16H426V81.89Z"/>
    <path class="b3cf0610-f4d0-4c0e-a6eb-2c59d36d07ca" d="M433.56,82.43a.55.55,0,0,1-1.09,0,.54.54,0,0,1,.55-.55A.52.52,0,0,1,433.56,82.43Zm-1,6.19V83.79h.88v4.83Z"/>
    <path class="b3cf0610-f4d0-4c0e-a6eb-2c59d36d07ca" d="M439.08,83.79c0,.35,0,.73,0,1.32v2.81a2.78,2.78,0,0,1-.68,2.21,2.57,2.57,0,0,1-1.76.58,3.12,3.12,0,0,1-1.61-.4l.22-.67a2.73,2.73,0,0,0,1.42.38c.9,0,1.56-.47,1.56-1.69v-.54h0a1.73,1.73,0,0,1-1.54.81,2.16,2.16,0,0,1-2.06-2.36,2.32,2.32,0,0,1,2.18-2.56,1.6,1.6,0,0,1,1.5.83h0l0-.72Zm-.9,1.9a1,1,0,0,0-.06-.4,1.25,1.25,0,0,0-1.22-.93c-.84,0-1.44.71-1.44,1.83,0,1,.48,1.74,1.43,1.74a1.29,1.29,0,0,0,1.22-.9,1.53,1.53,0,0,0,.07-.47Z"/>
    <path class="b3cf0610-f4d0-4c0e-a6eb-2c59d36d07ca" d="M440.51,81.53h.88v3h0a1.61,1.61,0,0,1,.63-.61,1.81,1.81,0,0,1,.9-.25c.64,0,1.68.4,1.68,2.06v2.88h-.87V85.84c0-.78-.29-1.44-1.12-1.44a1.26,1.26,0,0,0-1.18.88,1.07,1.07,0,0,0-.06.42v2.92h-.88Z"/>
    <path class="b3cf0610-f4d0-4c0e-a6eb-2c59d36d07ca" d="M446.55,86.36A1.55,1.55,0,0,0,448.21,88a3.18,3.18,0,0,0,1.34-.25l.15.63a3.92,3.92,0,0,1-1.61.3,2.25,2.25,0,0,1-2.38-2.44,2.34,2.34,0,0,1,2.27-2.6A2,2,0,0,1,450,86a3.32,3.32,0,0,1,0,.41Zm2.58-.63a1.25,1.25,0,0,0-1.22-1.43,1.46,1.46,0,0,0-1.35,1.43Z"/>
    <path class="b3cf0610-f4d0-4c0e-a6eb-2c59d36d07ca" d="M451.07,85.29c0-.57,0-1.06,0-1.5h.77l0,.94h0a1.45,1.45,0,0,1,1.34-1,1,1,0,0,1,.25,0v.82a1.32,1.32,0,0,0-.3,0A1.23,1.23,0,0,0,452,85.63a2.48,2.48,0,0,0,0,.41v2.58h-.87Z"/>
    <path class="b3cf0610-f4d0-4c0e-a6eb-2c59d36d07ca" d="M457.44,82.43a.55.55,0,0,1-1.09,0,.54.54,0,0,1,.55-.55A.52.52,0,0,1,457.44,82.43Zm-1,6.19V83.79h.88v4.83Z"/>
    <path class="b3cf0610-f4d0-4c0e-a6eb-2c59d36d07ca" d="M458.68,87.72a2.31,2.31,0,0,0,1.16.35c.64,0,.94-.32.94-.72s-.25-.65-.9-.89c-.87-.31-1.28-.79-1.28-1.37a1.49,1.49,0,0,1,1.67-1.41,2.42,2.42,0,0,1,1.19.3l-.22.63a1.89,1.89,0,0,0-1-.27c-.52,0-.81.29-.81.65s.29.58.92.82c.84.32,1.26.74,1.26,1.46s-.65,1.45-1.8,1.45a2.76,2.76,0,0,1-1.36-.33Z"/>
    <path class="b3cf0610-f4d0-4c0e-a6eb-2c59d36d07ca" d="M464.84,88.62c0-.33,0-.82,0-1.25V81.53h.87v3h0a1.8,1.8,0,0,1,1.65-.88c1.2,0,2,1,2,2.46a2.29,2.29,0,0,1-2.16,2.59,1.72,1.72,0,0,1-1.62-.91h0l0,.8Zm.91-1.94a1.65,1.65,0,0,0,0,.32,1.36,1.36,0,0,0,1.32,1c.92,0,1.47-.75,1.47-1.86s-.5-1.79-1.44-1.79a1.39,1.39,0,0,0-1.34,1.07,1.73,1.73,0,0,0-.05.36Z"/>
    <path class="b3cf0610-f4d0-4c0e-a6eb-2c59d36d07ca" d="M471.06,86.36A1.55,1.55,0,0,0,472.72,88a3.16,3.16,0,0,0,1.33-.25l.15.63a3.86,3.86,0,0,1-1.6.3,2.25,2.25,0,0,1-2.38-2.44,2.34,2.34,0,0,1,2.27-2.6,2,2,0,0,1,2,2.27,3.32,3.32,0,0,1,0,.41Zm2.57-.63a1.25,1.25,0,0,0-1.21-1.43,1.46,1.46,0,0,0-1.35,1.43Z"/>
    <path class="b3cf0610-f4d0-4c0e-a6eb-2c59d36d07ca" d="M476.64,82.4v1.39h1.25v.67h-1.25v2.6c0,.6.17.94.65.94a1.84,1.84,0,0,0,.51-.06l0,.66a2.09,2.09,0,0,1-.77.12,1.22,1.22,0,0,1-.95-.37,1.79,1.79,0,0,1-.34-1.26V84.46H475v-.67h.75V82.63Z"/>
    <path class="b3cf0610-f4d0-4c0e-a6eb-2c59d36d07ca" d="M480,82.4v1.39h1.26v.67H480v2.6c0,.6.17.94.66.94a2,2,0,0,0,.51-.06l0,.66a2.15,2.15,0,0,1-.78.12,1.22,1.22,0,0,1-.95-.37,1.79,1.79,0,0,1-.34-1.26V84.46h-.75v-.67h.75V82.63Z"/>
    <path class="b3cf0610-f4d0-4c0e-a6eb-2c59d36d07ca" d="M482.63,86.36A1.55,1.55,0,0,0,484.29,88a3.13,3.13,0,0,0,1.33-.25l.15.63a3.86,3.86,0,0,1-1.6.3,2.25,2.25,0,0,1-2.38-2.44,2.34,2.34,0,0,1,2.27-2.6,2,2,0,0,1,2,2.27,2.07,2.07,0,0,1,0,.41Zm2.58-.63A1.26,1.26,0,0,0,484,84.3a1.46,1.46,0,0,0-1.35,1.43Z"/>
    <path class="b3cf0610-f4d0-4c0e-a6eb-2c59d36d07ca" d="M487.15,85.29c0-.57,0-1.06,0-1.5h.77l0,.94h0a1.45,1.45,0,0,1,1.34-1,1,1,0,0,1,.25,0v.82a1.32,1.32,0,0,0-.3,0,1.23,1.23,0,0,0-1.18,1.13,2.48,2.48,0,0,0,0,.41v2.58h-.87Z"/>
    <path class="b3cf0610-f4d0-4c0e-a6eb-2c59d36d07ca" d="M489.68,88.1a.59.59,0,0,1,.6-.63.63.63,0,1,1-.6.63Z"/>
  </g>
  <g>
    <rect class="bb3a54fa-3ffe-4cd8-9660-46ce27b8c66a" x="369.41" y="107.46" width="43.86" height="59.94"/>
    <g>
      <path class="b3cf0610-f4d0-4c0e-a6eb-2c59d36d07ca" d="M386.48,118.9l-.09-.73h0a2.16,2.16,0,0,1-1.78.86,1.65,1.65,0,0,1-1.77-1.66c0-1.41,1.25-2.17,3.49-2.16v-.12a1.19,1.19,0,0,0-1.32-1.34,2.84,2.84,0,0,0-1.51.43l-.24-.7a3.6,3.6,0,0,1,1.9-.51c1.78,0,2.21,1.21,2.21,2.37v2.17a8.32,8.32,0,0,0,.1,1.39Zm-.16-3c-1.15,0-2.46.18-2.46,1.31a.93.93,0,0,0,1,1,1.44,1.44,0,0,0,1.4-1,.92.92,0,0,0,.06-.33Z"/>
      <path class="b3cf0610-f4d0-4c0e-a6eb-2c59d36d07ca" d="M389.05,110.39h1.05v8.51h-1.05Z"/>
      <path class="b3cf0610-f4d0-4c0e-a6eb-2c59d36d07ca" d="M391.88,115c0-.74,0-1.34-.05-1.89h.95l.05,1h0a2.3,2.3,0,0,1,2.07-1.12c1.4,0,2.45,1.18,2.45,3,0,2.08-1.27,3.11-2.64,3.11a2,2,0,0,1-1.78-.91h0v3.16h-1Zm1,1.55a2.68,2.68,0,0,0,.05.43,1.63,1.63,0,0,0,1.58,1.24c1.12,0,1.77-.91,1.77-2.25,0-1.16-.61-2.15-1.73-2.15a1.67,1.67,0,0,0-1.59,1.3,1.56,1.56,0,0,0-.08.43Z"/>
      <path class="b3cf0610-f4d0-4c0e-a6eb-2c59d36d07ca" d="M398.71,110.39h1.05V114h0a2,2,0,0,1,.75-.74,2.19,2.19,0,0,1,1.08-.3c.78,0,2,.48,2,2.48v3.45h-1.06v-3.33c0-.94-.34-1.73-1.34-1.73a1.53,1.53,0,0,0-1.42,1.06,1.47,1.47,0,0,0-.07.5v3.5h-1.05Z"/>
      <path class="b3cf0610-f4d0-4c0e-a6eb-2c59d36d07ca" d="M408.58,118.9l-.08-.73h0a2.14,2.14,0,0,1-1.77.86,1.65,1.65,0,0,1-1.78-1.66c0-1.41,1.25-2.17,3.49-2.16v-.12a1.19,1.19,0,0,0-1.32-1.34,2.84,2.84,0,0,0-1.51.43l-.24-.7a3.63,3.63,0,0,1,1.91-.51c1.77,0,2.21,1.21,2.21,2.37v2.17a8.39,8.39,0,0,0,.09,1.39Zm-.15-3c-1.16,0-2.46.18-2.46,1.31a.93.93,0,0,0,1,1,1.45,1.45,0,0,0,1.41-1,1.2,1.2,0,0,0,.06-.33Z"/>
      <path class="b3cf0610-f4d0-4c0e-a6eb-2c59d36d07ca" d="M388.89,129.32c0,2.65-1,4.11-2.71,4.11-1.52,0-2.56-1.42-2.58-4s1.13-4.06,2.71-4.06S388.89,126.84,388.89,129.32Zm-4.23.12c0,2,.62,3.18,1.58,3.18s1.59-1.26,1.59-3.25-.49-3.18-1.58-3.18C385.33,126.19,384.66,127.32,384.66,129.44Z"/>
      <path class="b3cf0610-f4d0-4c0e-a6eb-2c59d36d07ca" d="M390,132.68a.71.71,0,0,1,.72-.76.76.76,0,1,1-.72.76Z"/>
      <path class="b3cf0610-f4d0-4c0e-a6eb-2c59d36d07ca" d="M394.64,126.49h0l-1.36.73-.2-.8,1.7-.91h.9v7.79h-1Z"/>
      <path class="b3cf0610-f4d0-4c0e-a6eb-2c59d36d07ca" d="M403.69,129.32c0,2.65-1,4.11-2.71,4.11-1.53,0-2.56-1.42-2.58-4s1.12-4.06,2.71-4.06S403.69,126.84,403.69,129.32Zm-4.24.12c0,2,.63,3.18,1.59,3.18s1.59-1.26,1.59-3.25-.49-3.18-1.58-3.18C400.12,126.19,399.45,127.32,399.45,129.44Z"/>
      <path class="b3cf0610-f4d0-4c0e-a6eb-2c59d36d07ca" d="M404.66,133.3v-.65l.83-.8c2-1.89,2.89-2.9,2.9-4.08a1.39,1.39,0,0,0-1.55-1.52,2.63,2.63,0,0,0-1.65.66l-.34-.74a3.41,3.41,0,0,1,2.21-.8,2.2,2.2,0,0,1,2.39,2.27c0,1.44-1.05,2.6-2.69,4.19l-.63.57v0h3.51v.87Z"/>
      <path class="b3cf0610-f4d0-4c0e-a6eb-2c59d36d07ca" d="M388.89,143.72c0,2.65-1,4.11-2.71,4.11-1.52,0-2.56-1.42-2.58-4s1.13-4.06,2.71-4.06S388.89,141.24,388.89,143.72Zm-4.23.12c0,2,.62,3.18,1.58,3.18s1.59-1.26,1.59-3.25-.49-3.18-1.58-3.18C385.33,140.59,384.66,141.72,384.66,143.84Z"/>
      <path class="b3cf0610-f4d0-4c0e-a6eb-2c59d36d07ca" d="M390,147.08a.71.71,0,0,1,.72-.76.76.76,0,1,1-.72.76Z"/>
      <path class="b3cf0610-f4d0-4c0e-a6eb-2c59d36d07ca" d="M397.53,143.72c0,2.65-1,4.11-2.71,4.11-1.52,0-2.56-1.42-2.58-4s1.13-4.06,2.71-4.06S397.53,141.24,397.53,143.72Zm-4.23.12c0,2,.62,3.18,1.58,3.18s1.59-1.26,1.59-3.25-.49-3.18-1.58-3.18C394,140.59,393.3,141.72,393.3,143.84Z"/>
      <path class="b3cf0610-f4d0-4c0e-a6eb-2c59d36d07ca" d="M400.79,140.89h0l-1.35.73-.21-.8,1.71-.91h.89v7.79h-1Z"/>
      <path class="b3cf0610-f4d0-4c0e-a6eb-2c59d36d07ca" d="M409.84,143.72c0,2.65-1,4.11-2.71,4.11-1.52,0-2.55-1.42-2.58-4s1.13-4.06,2.71-4.06S409.84,141.24,409.84,143.72Zm-4.23.12c0,2,.62,3.18,1.58,3.18s1.6-1.26,1.6-3.25-.5-3.18-1.59-3.18C406.28,140.59,405.61,141.72,405.61,143.84Z"/>
      <path class="b3cf0610-f4d0-4c0e-a6eb-2c59d36d07ca" d="M382.81,158.47v.78h-3v-.78Z"/>
      <path class="b3cf0610-f4d0-4c0e-a6eb-2c59d36d07ca" d="M388.89,158.12c0,2.65-1,4.11-2.71,4.11-1.52,0-2.56-1.42-2.58-4s1.13-4.06,2.71-4.06S388.89,155.64,388.89,158.12Zm-4.23.12c0,2,.62,3.18,1.58,3.18s1.59-1.26,1.59-3.25-.49-3.18-1.58-3.18C385.33,155,384.66,156.12,384.66,158.24Z"/>
      <path class="b3cf0610-f4d0-4c0e-a6eb-2c59d36d07ca" d="M390,161.48a.72.72,0,0,1,.72-.76.76.76,0,1,1-.72.76Z"/>
      <path class="b3cf0610-f4d0-4c0e-a6eb-2c59d36d07ca" d="M397.53,158.12c0,2.65-1,4.11-2.71,4.11-1.52,0-2.56-1.42-2.58-4s1.13-4.06,2.71-4.06S397.53,155.64,397.53,158.12Zm-4.23.12c0,2,.62,3.18,1.58,3.18s1.59-1.26,1.59-3.25S396,155,394.89,155C394,155,393.3,156.12,393.3,158.24Z"/>
      <path class="b3cf0610-f4d0-4c0e-a6eb-2c59d36d07ca" d="M403.69,158.12c0,2.65-1,4.11-2.71,4.11-1.53,0-2.56-1.42-2.58-4s1.12-4.06,2.71-4.06S403.69,155.64,403.69,158.12Zm-4.24.12c0,2,.63,3.18,1.59,3.18s1.59-1.26,1.59-3.25-.49-3.18-1.58-3.18C400.12,155,399.45,156.12,399.45,158.24Z"/>
      <path class="b3cf0610-f4d0-4c0e-a6eb-2c59d36d07ca" d="M409.31,155.19h-3l-.3,2a3.48,3.48,0,0,1,.63,0,3.28,3.28,0,0,1,1.68.42,2.21,2.21,0,0,1,1.12,2,2.7,2.7,0,0,1-2.9,2.66,3.74,3.74,0,0,1-1.95-.48l.27-.8a3.5,3.5,0,0,0,1.66.43,1.72,1.72,0,0,0,1.85-1.69c0-1-.68-1.73-2.24-1.73a7.29,7.29,0,0,0-1.08.09l.5-3.74h3.73Z"/>
    </g>
  </g>
  <g>
    <path class="b3cf0610-f4d0-4c0e-a6eb-2c59d36d07ca" d="M421.75,110.23h3.63V111h-2.76v2.24h2.55v.72h-2.55v3h-.87Z"/>
    <path class="b3cf0610-f4d0-4c0e-a6eb-2c59d36d07ca" d="M430.66,114.51a2.37,2.37,0,0,1-2.41,2.57,2.3,2.3,0,0,1-2.32-2.49,2.36,2.36,0,0,1,2.4-2.57A2.29,2.29,0,0,1,430.66,114.51Zm-3.84,0c0,1.06.61,1.86,1.47,1.86s1.47-.79,1.47-1.88c0-.82-.41-1.86-1.45-1.86S426.82,113.64,426.82,114.56Z"/>
    <path class="b3cf0610-f4d0-4c0e-a6eb-2c59d36d07ca" d="M431.77,113.64c0-.57,0-1.06,0-1.51h.77l0,1h0a1.45,1.45,0,0,1,1.34-1.06,1,1,0,0,1,.25,0v.83a1.32,1.32,0,0,0-.3,0,1.23,1.23,0,0,0-1.18,1.13,2.48,2.48,0,0,0,0,.41V117h-.87Z"/>
    <path class="b3cf0610-f4d0-4c0e-a6eb-2c59d36d07ca" d="M439.13,112.13c0,.35,0,.74,0,1.33v2.81a2.78,2.78,0,0,1-.69,2.21,2.57,2.57,0,0,1-1.76.58,3.12,3.12,0,0,1-1.61-.4l.22-.67a2.73,2.73,0,0,0,1.42.38c.9,0,1.56-.47,1.56-1.69v-.54h0a1.73,1.73,0,0,1-1.54.81,2.16,2.16,0,0,1-2.06-2.36,2.32,2.32,0,0,1,2.18-2.57,1.61,1.61,0,0,1,1.51.84h0l0-.73Zm-.91,1.91a1.25,1.25,0,0,0-.05-.4,1.27,1.27,0,0,0-1.23-.93c-.84,0-1.44.71-1.44,1.83,0,.95.48,1.74,1.43,1.74a1.29,1.29,0,0,0,1.22-.9,1.53,1.53,0,0,0,.07-.47Z"/>
    <path class="b3cf0610-f4d0-4c0e-a6eb-2c59d36d07ca" d="M441,114.71a1.55,1.55,0,0,0,1.66,1.68,3.18,3.18,0,0,0,1.34-.25l.15.63a3.92,3.92,0,0,1-1.61.3,2.25,2.25,0,0,1-2.38-2.44,2.35,2.35,0,0,1,2.27-2.61,2.05,2.05,0,0,1,2,2.28,3.32,3.32,0,0,1,0,.41Zm2.58-.63a1.25,1.25,0,0,0-1.22-1.43,1.46,1.46,0,0,0-1.35,1.43Z"/>
    <path class="b3cf0610-f4d0-4c0e-a6eb-2c59d36d07ca" d="M446.62,110.74v1.39h1.26v.67h-1.26v2.61c0,.6.17.94.66.94a2,2,0,0,0,.51-.06l0,.66a2.15,2.15,0,0,1-.78.12,1.22,1.22,0,0,1-.95-.37,1.79,1.79,0,0,1-.34-1.26V112.8H445v-.67h.75V111Z"/>
    <path class="b3cf0610-f4d0-4c0e-a6eb-2c59d36d07ca" d="M449.93,110.74v1.39h1.26v.67h-1.26v2.61c0,.6.17.94.66.94a2,2,0,0,0,.51-.06l0,.66a2.15,2.15,0,0,1-.78.12,1.22,1.22,0,0,1-.95-.37,1.79,1.79,0,0,1-.34-1.26V112.8h-.75v-.67h.75V111Z"/>
    <path class="b3cf0610-f4d0-4c0e-a6eb-2c59d36d07ca" d="M453.16,110.77a.55.55,0,0,1-1.09,0,.54.54,0,0,1,.55-.55A.52.52,0,0,1,453.16,110.77Zm-1,6.2v-4.84h.88V117Z"/>
    <path class="b3cf0610-f4d0-4c0e-a6eb-2c59d36d07ca" d="M454.52,113.44c0-.5,0-.91,0-1.31h.78l.05.8h0a1.78,1.78,0,0,1,1.6-.91c.67,0,1.71.4,1.71,2.06V117h-.88v-2.79c0-.78-.29-1.43-1.12-1.43a1.25,1.25,0,0,0-1.18.9,1.27,1.27,0,0,0-.06.41V117h-.88Z"/>
    <path class="b3cf0610-f4d0-4c0e-a6eb-2c59d36d07ca" d="M464.24,112.13c0,.35,0,.74,0,1.33v2.81a2.78,2.78,0,0,1-.69,2.21,2.57,2.57,0,0,1-1.76.58,3.12,3.12,0,0,1-1.61-.4l.22-.67a2.73,2.73,0,0,0,1.42.38c.9,0,1.56-.47,1.56-1.69v-.54h0a1.73,1.73,0,0,1-1.54.81,2.16,2.16,0,0,1-2.06-2.36A2.32,2.32,0,0,1,461.9,112a1.61,1.61,0,0,1,1.51.84h0l0-.73Zm-.91,1.91a1.25,1.25,0,0,0-.05-.4,1.27,1.27,0,0,0-1.23-.93c-.84,0-1.44.71-1.44,1.83,0,.95.48,1.74,1.43,1.74a1.29,1.29,0,0,0,1.22-.9,1.53,1.53,0,0,0,.07-.47Z"/>
    <path class="b3cf0610-f4d0-4c0e-a6eb-2c59d36d07ca" d="M465.45,112.93a.6.6,0,1,1,1.19,0,.6.6,0,1,1-1.19,0Zm0,3.53a.6.6,0,1,1,1.19,0,.6.6,0,1,1-1.19,0Z"/>
    <path class="b3cf0610-f4d0-4c0e-a6eb-2c59d36d07ca" d="M427.08,126.85l-.7,2.12h-.9l2.29-6.74h1.05l2.3,6.74h-.93l-.72-2.12Zm2.21-.68-.66-1.94c-.15-.44-.25-.84-.35-1.23h0c-.1.4-.21.81-.34,1.22l-.66,2Z"/>
    <path class="b3cf0610-f4d0-4c0e-a6eb-2c59d36d07ca" d="M435.41,128.79a3.24,3.24,0,0,1-1.39.28,2.3,2.3,0,0,1-2.41-2.47,2.46,2.46,0,0,1,2.6-2.57,2.94,2.94,0,0,1,1.22.25l-.2.68a2,2,0,0,0-1-.23,1.82,1.82,0,0,0,0,3.64,2.5,2.5,0,0,0,1.08-.24Z"/>
    <path class="b3cf0610-f4d0-4c0e-a6eb-2c59d36d07ca" d="M439.83,128.79a3.24,3.24,0,0,1-1.39.28A2.3,2.3,0,0,1,436,126.6a2.46,2.46,0,0,1,2.6-2.57,2.94,2.94,0,0,1,1.22.25l-.2.68a2,2,0,0,0-1-.23,1.82,1.82,0,0,0,0,3.64,2.5,2.5,0,0,0,1.08-.24Z"/>
    <path class="b3cf0610-f4d0-4c0e-a6eb-2c59d36d07ca" d="M445.18,126.51a2.37,2.37,0,0,1-2.41,2.57,2.3,2.3,0,0,1-2.32-2.49,2.36,2.36,0,0,1,2.4-2.57A2.29,2.29,0,0,1,445.18,126.51Zm-3.84,0c0,1.06.61,1.86,1.47,1.86s1.47-.79,1.47-1.88c0-.82-.41-1.86-1.45-1.86S441.34,125.64,441.34,126.56Z"/>
    <path class="b3cf0610-f4d0-4c0e-a6eb-2c59d36d07ca" d="M450.34,127.65c0,.5,0,.94,0,1.32h-.78l-.05-.79h0a1.82,1.82,0,0,1-1.6.9c-.76,0-1.67-.42-1.67-2.12v-2.83h.88v2.68c0,.92.28,1.54,1.08,1.54a1.27,1.27,0,0,0,1.16-.8,1.29,1.29,0,0,0,.08-.45v-3h.88Z"/>
    <path class="b3cf0610-f4d0-4c0e-a6eb-2c59d36d07ca" d="M451.8,125.44c0-.5,0-.91,0-1.31h.78l0,.8h0a1.78,1.78,0,0,1,1.6-.91c.67,0,1.71.4,1.71,2.06V129H455v-2.79c0-.78-.29-1.43-1.12-1.43a1.25,1.25,0,0,0-1.18.9,1.27,1.27,0,0,0-.06.41V129h-.88Z"/>
    <path class="b3cf0610-f4d0-4c0e-a6eb-2c59d36d07ca" d="M458.37,122.74v1.39h1.26v.67h-1.26v2.61c0,.6.17.94.66.94a2,2,0,0,0,.51-.06l0,.66a2.15,2.15,0,0,1-.78.12,1.22,1.22,0,0,1-.95-.37,1.79,1.79,0,0,1-.34-1.26V124.8h-.75v-.67h.75V123Z"/>
    <path class="b3cf0610-f4d0-4c0e-a6eb-2c59d36d07ca" d="M461.6,122.77a.55.55,0,0,1-1.09,0,.54.54,0,0,1,.55-.55A.52.52,0,0,1,461.6,122.77Zm-1,6.2v-4.84h.88V129Z"/>
    <path class="b3cf0610-f4d0-4c0e-a6eb-2c59d36d07ca" d="M463,125.44c0-.5,0-.91,0-1.31h.78l.05.8h0a1.78,1.78,0,0,1,1.6-.91c.67,0,1.71.4,1.71,2.06V129h-.88v-2.79c0-.78-.29-1.43-1.12-1.43a1.25,1.25,0,0,0-1.18.9,1.27,1.27,0,0,0-.06.41V129H463Z"/>
    <path class="b3cf0610-f4d0-4c0e-a6eb-2c59d36d07ca" d="M472.68,124.13c0,.35,0,.74,0,1.33v2.81a2.78,2.78,0,0,1-.69,2.21,2.57,2.57,0,0,1-1.76.58,3.12,3.12,0,0,1-1.61-.4l.22-.67a2.73,2.73,0,0,0,1.42.38c.9,0,1.56-.47,1.56-1.69v-.54h0a1.73,1.73,0,0,1-1.54.81,2.16,2.16,0,0,1-2.06-2.36,2.32,2.32,0,0,1,2.18-2.57,1.61,1.61,0,0,1,1.51.84h0l0-.73Zm-.91,1.91a1.25,1.25,0,0,0,0-.4,1.27,1.27,0,0,0-1.23-.93c-.84,0-1.44.71-1.44,1.83,0,.95.48,1.74,1.43,1.74a1.29,1.29,0,0,0,1.22-.9,1.53,1.53,0,0,0,.07-.47Z"/>
    <path class="b3cf0610-f4d0-4c0e-a6eb-2c59d36d07ca" d="M426.05,141V136.8h-.68v-.67h.68v-.23a2.28,2.28,0,0,1,.56-1.69,1.68,1.68,0,0,1,1.18-.45,2,2,0,0,1,.75.14l-.12.68a1.31,1.31,0,0,0-.56-.11c-.75,0-.94.66-.94,1.4v.26h1.17v.67h-1.17V141Z"/>
    <path class="b3cf0610-f4d0-4c0e-a6eb-2c59d36d07ca" d="M433.13,138.51a2.37,2.37,0,0,1-2.41,2.57,2.3,2.3,0,0,1-2.32-2.49,2.36,2.36,0,0,1,2.4-2.57A2.29,2.29,0,0,1,433.13,138.51Zm-3.84.05c0,1.06.61,1.86,1.47,1.86s1.47-.79,1.47-1.88c0-.82-.41-1.86-1.45-1.86S429.29,137.64,429.29,138.56Z"/>
    <path class="b3cf0610-f4d0-4c0e-a6eb-2c59d36d07ca" d="M434.24,137.64c0-.57,0-1.06,0-1.51H435l0,1h0a1.45,1.45,0,0,1,1.34-1.06,1,1,0,0,1,.25,0v.83a1.32,1.32,0,0,0-.3,0,1.23,1.23,0,0,0-1.18,1.13,2.48,2.48,0,0,0,0,.41V141h-.87Z"/>
    <path class="b3cf0610-f4d0-4c0e-a6eb-2c59d36d07ca" d="M443.8,136.13c0,.35,0,.74,0,1.33v2.81a2.78,2.78,0,0,1-.69,2.21,2.57,2.57,0,0,1-1.76.58,3.12,3.12,0,0,1-1.61-.4l.22-.67a2.73,2.73,0,0,0,1.42.38c.9,0,1.56-.47,1.56-1.69v-.54h0a1.73,1.73,0,0,1-1.54.81,2.16,2.16,0,0,1-2.06-2.36,2.32,2.32,0,0,1,2.18-2.57,1.61,1.61,0,0,1,1.51.84h0l0-.73Zm-.91,1.91a1.25,1.25,0,0,0-.05-.4,1.27,1.27,0,0,0-1.23-.93c-.84,0-1.44.71-1.44,1.83,0,1,.48,1.74,1.43,1.74a1.29,1.29,0,0,0,1.22-.9,1.53,1.53,0,0,0,.07-.47Z"/>
    <path class="b3cf0610-f4d0-4c0e-a6eb-2c59d36d07ca" d="M449.27,139.65c0,.5,0,.94,0,1.32h-.78l0-.79h0a1.82,1.82,0,0,1-1.6.9c-.76,0-1.67-.42-1.67-2.12v-2.83h.88v2.68c0,.92.28,1.54,1.08,1.54a1.27,1.27,0,0,0,1.16-.8,1.29,1.29,0,0,0,.08-.45v-3h.88Z"/>
    <path class="b3cf0610-f4d0-4c0e-a6eb-2c59d36d07ca" d="M451.22,138.71a1.55,1.55,0,0,0,1.66,1.68,3.18,3.18,0,0,0,1.34-.25l.15.63a3.92,3.92,0,0,1-1.61.3,2.25,2.25,0,0,1-2.38-2.44,2.35,2.35,0,0,1,2.27-2.61,2.05,2.05,0,0,1,2,2.28,3.32,3.32,0,0,1,0,.41Zm2.58-.63a1.25,1.25,0,0,0-1.22-1.43,1.46,1.46,0,0,0-1.35,1.43Z"/>
    <path class="b3cf0610-f4d0-4c0e-a6eb-2c59d36d07ca" d="M455.62,140.07a2.31,2.31,0,0,0,1.16.35c.64,0,.94-.32.94-.72s-.25-.65-.9-.89c-.87-.31-1.28-.79-1.28-1.37a1.49,1.49,0,0,1,1.67-1.42,2.42,2.42,0,0,1,1.19.3l-.22.64a1.88,1.88,0,0,0-1-.28c-.52,0-.81.3-.81.66s.29.58.92.82c.84.32,1.27.74,1.27,1.46s-.66,1.45-1.81,1.45a2.76,2.76,0,0,1-1.36-.33Z"/>
    <path class="b3cf0610-f4d0-4c0e-a6eb-2c59d36d07ca" d="M459.58,140.07a2.31,2.31,0,0,0,1.16.35c.64,0,.94-.32.94-.72s-.25-.65-.9-.89c-.87-.31-1.28-.79-1.28-1.37a1.49,1.49,0,0,1,1.67-1.42,2.42,2.42,0,0,1,1.19.3l-.22.64a1.88,1.88,0,0,0-1-.28c-.52,0-.81.3-.81.66s.29.58.92.82c.84.32,1.27.74,1.27,1.46s-.66,1.45-1.81,1.45a2.76,2.76,0,0,1-1.36-.33Z"/>
    <path class="b3cf0610-f4d0-4c0e-a6eb-2c59d36d07ca" d="M464.64,134.77a.55.55,0,0,1-1.09,0,.54.54,0,0,1,.55-.55A.52.52,0,0,1,464.64,134.77Zm-1,6.2v-4.84h.88V141Z"/>
    <path class="b3cf0610-f4d0-4c0e-a6eb-2c59d36d07ca" d="M466,137.44c0-.5,0-.91,0-1.31h.78l.05.8h0a1.78,1.78,0,0,1,1.6-.91c.67,0,1.71.4,1.71,2.06V141h-.88v-2.79c0-.78-.29-1.43-1.12-1.43a1.25,1.25,0,0,0-1.18.9,1.27,1.27,0,0,0-.06.41V141H466Z"/>
    <path class="b3cf0610-f4d0-4c0e-a6eb-2c59d36d07ca" d="M475.71,136.13c0,.35,0,.74,0,1.33v2.81a2.78,2.78,0,0,1-.68,2.21,2.57,2.57,0,0,1-1.76.58,3.12,3.12,0,0,1-1.61-.4l.22-.67a2.73,2.73,0,0,0,1.42.38c.9,0,1.56-.47,1.56-1.69v-.54h0a1.7,1.7,0,0,1-1.53.81,2.16,2.16,0,0,1-2.06-2.36,2.32,2.32,0,0,1,2.18-2.57,1.59,1.59,0,0,1,1.5.84h0l0-.73Zm-.9,1.91a1.33,1.33,0,0,0-1.28-1.33c-.84,0-1.44.71-1.44,1.83,0,1,.48,1.74,1.43,1.74a1.3,1.3,0,0,0,1.22-.9,1.53,1.53,0,0,0,.07-.47Z"/>
    <path class="b3cf0610-f4d0-4c0e-a6eb-2c59d36d07ca" d="M481.94,141l-.07-.61h0a1.8,1.8,0,0,1-1.48.72,1.38,1.38,0,0,1-1.48-1.39c0-1.17,1-1.81,2.91-1.8v-.1a1,1,0,0,0-1.1-1.12,2.41,2.41,0,0,0-1.26.36l-.2-.58a3,3,0,0,1,1.59-.43c1.47,0,1.84,1,1.84,2v1.81a5.92,5.92,0,0,0,.08,1.16Zm-.13-2.47c-1,0-2.05.15-2.05,1.09a.78.78,0,0,0,.83.84,1.2,1.2,0,0,0,1.17-.81.92.92,0,0,0,.05-.28Z"/>
    <path class="b3cf0610-f4d0-4c0e-a6eb-2c59d36d07ca" d="M484.08,137.44c0-.5,0-.91,0-1.31h.78l.05.8h0a1.78,1.78,0,0,1,1.6-.91c.67,0,1.71.4,1.71,2.06V141h-.88v-2.79c0-.78-.29-1.43-1.12-1.43a1.25,1.25,0,0,0-1.18.9,1.27,1.27,0,0,0-.06.41V141h-.88Z"/>
    <path class="b3cf0610-f4d0-4c0e-a6eb-2c59d36d07ca" d="M493.8,133.87v5.85c0,.43,0,.92,0,1.25h-.78l0-.84h0a1.79,1.79,0,0,1-1.65,1,2.21,2.21,0,0,1-2.07-2.46,2.32,2.32,0,0,1,2.17-2.6,1.62,1.62,0,0,1,1.46.74h0v-2.89Zm-.88,4.23a1.54,1.54,0,0,0,0-.37,1.3,1.3,0,0,0-1.27-1c-.91,0-1.45.8-1.45,1.87s.48,1.79,1.43,1.79a1.32,1.32,0,0,0,1.29-1.05,1.54,1.54,0,0,0,0-.38Z"/>
    <path class="b3cf0610-f4d0-4c0e-a6eb-2c59d36d07ca" d="M426,149.71c0-.62,0-1.12,0-1.58h.79l0,.83h0a1.9,1.9,0,0,1,1.72-.94,2.19,2.19,0,0,1,2.05,2.46c0,1.74-1.06,2.6-2.2,2.6a1.7,1.7,0,0,1-1.49-.76h0V155H426Zm.87,1.29a2,2,0,0,0,0,.36,1.36,1.36,0,0,0,1.32,1c.93,0,1.47-.76,1.47-1.87s-.51-1.8-1.44-1.8a1.4,1.4,0,0,0-1.33,1.09,1.43,1.43,0,0,0-.06.36Z"/>
    <path class="b3cf0610-f4d0-4c0e-a6eb-2c59d36d07ca" d="M431.65,149.64c0-.57,0-1.06,0-1.51h.77l0,1h0a1.45,1.45,0,0,1,1.34-1.06,1,1,0,0,1,.25,0v.83a1.32,1.32,0,0,0-.3,0,1.23,1.23,0,0,0-1.18,1.13,2.48,2.48,0,0,0,0,.41V153h-.87Z"/>
    <path class="b3cf0610-f4d0-4c0e-a6eb-2c59d36d07ca" d="M435.94,146.77a.55.55,0,0,1-1.09,0,.54.54,0,0,1,.55-.55A.52.52,0,0,1,435.94,146.77Zm-1,6.2v-4.84h.88V153Z"/>
    <path class="b3cf0610-f4d0-4c0e-a6eb-2c59d36d07ca" d="M441.67,150.51a2.36,2.36,0,0,1-2.4,2.57,2.3,2.3,0,0,1-2.32-2.49,2.36,2.36,0,0,1,2.4-2.57A2.28,2.28,0,0,1,441.67,150.51Zm-3.83.05c0,1.06.61,1.86,1.47,1.86s1.47-.79,1.47-1.88c0-.82-.41-1.86-1.45-1.86S437.84,149.64,437.84,150.56Z"/>
    <path class="b3cf0610-f4d0-4c0e-a6eb-2c59d36d07ca" d="M442.79,149.64c0-.57,0-1.06,0-1.51h.77l0,1h0a1.45,1.45,0,0,1,1.34-1.06,1,1,0,0,1,.25,0v.83a1.32,1.32,0,0,0-.3,0A1.23,1.23,0,0,0,443.7,150a2.48,2.48,0,0,0,0,.41V153h-.87Z"/>
    <path class="b3cf0610-f4d0-4c0e-a6eb-2c59d36d07ca" d="M449.05,150.35h0c.12-.17.29-.38.43-.55l1.42-1.67H452l-1.86,2,2.12,2.85h-1.06l-1.67-2.32-.45.5V153h-.87v-7.1h.87Z"/>
    <path class="b3cf0610-f4d0-4c0e-a6eb-2c59d36d07ca" d="M453,149.44c0-.5,0-.91,0-1.31h.78l.05.8h0a1.78,1.78,0,0,1,1.6-.91c.67,0,1.71.4,1.71,2.06V153h-.88v-2.79c0-.78-.29-1.43-1.12-1.43a1.25,1.25,0,0,0-1.18.9,1.27,1.27,0,0,0-.06.41V153H453Z"/>
    <path class="b3cf0610-f4d0-4c0e-a6eb-2c59d36d07ca" d="M463,150.51a2.36,2.36,0,0,1-2.4,2.57,2.3,2.3,0,0,1-2.32-2.49,2.36,2.36,0,0,1,2.4-2.57A2.28,2.28,0,0,1,463,150.51Zm-3.83.05c0,1.06.61,1.86,1.47,1.86s1.47-.79,1.47-1.88c0-.82-.41-1.86-1.45-1.86S459.13,149.64,459.13,150.56Z"/>
    <path class="b3cf0610-f4d0-4c0e-a6eb-2c59d36d07ca" d="M464.36,148.13l.64,2.46c.14.54.27,1,.36,1.54h0c.11-.49.27-1,.43-1.53l.79-2.47h.73l.75,2.42c.18.58.32,1.09.43,1.58h0a14.55,14.55,0,0,1,.37-1.57l.69-2.43h.87L468.92,153h-.8l-.74-2.31a16.11,16.11,0,0,1-.42-1.59h0a14.32,14.32,0,0,1-.44,1.6l-.78,2.3h-.8l-1.46-4.84Z"/>
    <path class="b3cf0610-f4d0-4c0e-a6eb-2c59d36d07ca" d="M471.37,145.87h.88V153h-.88Z"/>
    <path class="b3cf0610-f4d0-4c0e-a6eb-2c59d36d07ca" d="M474.22,150.71a1.55,1.55,0,0,0,1.66,1.68,3.16,3.16,0,0,0,1.33-.25l.15.63a3.86,3.86,0,0,1-1.6.3,2.25,2.25,0,0,1-2.38-2.44,2.35,2.35,0,0,1,2.27-2.61,2,2,0,0,1,2,2.28,3.32,3.32,0,0,1,0,.41Zm2.57-.63a1.25,1.25,0,0,0-1.21-1.43,1.46,1.46,0,0,0-1.35,1.43Z"/>
    <path class="b3cf0610-f4d0-4c0e-a6eb-2c59d36d07ca" d="M482.91,145.87v5.85c0,.43,0,.92,0,1.25h-.78l-.05-.84h0a1.77,1.77,0,0,1-1.64,1,2.21,2.21,0,0,1-2.07-2.46,2.32,2.32,0,0,1,2.17-2.6,1.61,1.61,0,0,1,1.45.74h0v-2.89ZM482,150.1a2.31,2.31,0,0,0,0-.37,1.31,1.31,0,0,0-1.27-1c-.91,0-1.45.8-1.45,1.87s.48,1.79,1.43,1.79a1.34,1.34,0,0,0,1.29-1.05,2.25,2.25,0,0,0,0-.38Z"/>
    <path class="b3cf0610-f4d0-4c0e-a6eb-2c59d36d07ca" d="M488.54,148.13c0,.35,0,.74,0,1.33v2.81a2.78,2.78,0,0,1-.68,2.21,2.57,2.57,0,0,1-1.76.58,3.12,3.12,0,0,1-1.61-.4l.22-.67a2.73,2.73,0,0,0,1.42.38c.9,0,1.56-.47,1.56-1.69v-.54h0a1.7,1.7,0,0,1-1.53.81,2.16,2.16,0,0,1-2.06-2.36,2.32,2.32,0,0,1,2.18-2.57,1.59,1.59,0,0,1,1.5.84h0l0-.73Zm-.9,1.91a1.33,1.33,0,0,0-1.28-1.33c-.84,0-1.44.71-1.44,1.83,0,1,.48,1.74,1.43,1.74a1.29,1.29,0,0,0,1.22-.9,1.53,1.53,0,0,0,.07-.47Z"/>
    <path class="b3cf0610-f4d0-4c0e-a6eb-2c59d36d07ca" d="M490.46,150.71a1.55,1.55,0,0,0,1.66,1.68,3.22,3.22,0,0,0,1.34-.25l.14.63a3.86,3.86,0,0,1-1.6.3,2.25,2.25,0,0,1-2.38-2.44,2.35,2.35,0,0,1,2.27-2.61,2,2,0,0,1,2,2.28,2.07,2.07,0,0,1,0,.41Zm2.58-.63a1.26,1.26,0,0,0-1.22-1.43,1.46,1.46,0,0,0-1.35,1.43Z"/>
    <path class="b3cf0610-f4d0-4c0e-a6eb-2c59d36d07ca" d="M494.65,152.45a.59.59,0,0,1,.6-.63.63.63,0,1,1-.6.63Z"/>
    <path class="b3cf0610-f4d0-4c0e-a6eb-2c59d36d07ca" d="M426,165v-6.74h.95l2.16,3.41a19.08,19.08,0,0,1,1.21,2.19h0c-.08-.9-.1-1.72-.1-2.77v-2.82H431V165h-.87L428,161.55a21.39,21.39,0,0,1-1.26-2.25h0c.05.85.07,1.66.07,2.78V165Z"/>
    <path class="b3cf0610-f4d0-4c0e-a6eb-2c59d36d07ca" d="M433,162.71a1.55,1.55,0,0,0,1.66,1.68,3.18,3.18,0,0,0,1.34-.25l.14.63a3.83,3.83,0,0,1-1.6.3,2.25,2.25,0,0,1-2.38-2.44,2.35,2.35,0,0,1,2.27-2.61,2.05,2.05,0,0,1,2,2.28,1.93,1.93,0,0,1,0,.41Zm2.58-.63a1.25,1.25,0,0,0-1.22-1.43,1.46,1.46,0,0,0-1.35,1.43Z"/>
    <path class="b3cf0610-f4d0-4c0e-a6eb-2c59d36d07ca" d="M440.23,165l-.07-.61h0a1.8,1.8,0,0,1-1.48.72,1.38,1.38,0,0,1-1.48-1.39c0-1.17,1-1.81,2.91-1.8v-.1a1,1,0,0,0-1.1-1.12,2.41,2.41,0,0,0-1.26.36l-.2-.58a3,3,0,0,1,1.59-.43c1.48,0,1.84,1,1.84,2v1.81A6.81,6.81,0,0,0,441,165Zm-.13-2.47c-1,0-2.05.15-2.05,1.09a.78.78,0,0,0,.83.84,1.2,1.2,0,0,0,1.17-.81.92.92,0,0,0,.05-.28Z"/>
    <path class="b3cf0610-f4d0-4c0e-a6eb-2c59d36d07ca" d="M442.37,161.64c0-.57,0-1.06,0-1.51h.77l0,1h0a1.45,1.45,0,0,1,1.34-1.06,1,1,0,0,1,.25,0v.83a1.32,1.32,0,0,0-.3,0,1.23,1.23,0,0,0-1.18,1.13,2.48,2.48,0,0,0,0,.41V165h-.87Z"/>
    <path class="b3cf0610-f4d0-4c0e-a6eb-2c59d36d07ca" d="M447.63,161.94v.65h-2.47v-.65Z"/>
    <path class="b3cf0610-f4d0-4c0e-a6eb-2c59d36d07ca" d="M448.11,164.46l2.19-2.85c.21-.26.41-.49.63-.75v0h-2.62v-.71H452v.55l-2.16,2.81c-.2.27-.4.51-.62.76v0H452v.7h-3.93Z"/>
    <path class="b3cf0610-f4d0-4c0e-a6eb-2c59d36d07ca" d="M453.36,162.71a1.55,1.55,0,0,0,1.66,1.68,3.18,3.18,0,0,0,1.34-.25l.14.63a3.83,3.83,0,0,1-1.6.3,2.25,2.25,0,0,1-2.38-2.44,2.35,2.35,0,0,1,2.27-2.61,2.05,2.05,0,0,1,2,2.28,1.93,1.93,0,0,1,0,.41Zm2.58-.63a1.25,1.25,0,0,0-1.22-1.43,1.46,1.46,0,0,0-1.35,1.43Z"/>
    <path class="b3cf0610-f4d0-4c0e-a6eb-2c59d36d07ca" d="M457.88,161.64c0-.57,0-1.06,0-1.51h.77l0,1h0A1.45,1.45,0,0,1,460,160a1,1,0,0,1,.25,0v.83a1.32,1.32,0,0,0-.3,0,1.23,1.23,0,0,0-1.18,1.13,2.48,2.48,0,0,0,0,.41V165h-.87Z"/>
    <path class="b3cf0610-f4d0-4c0e-a6eb-2c59d36d07ca" d="M465.42,162.51a2.36,2.36,0,0,1-2.4,2.57,2.3,2.3,0,0,1-2.32-2.49,2.36,2.36,0,0,1,2.4-2.57A2.28,2.28,0,0,1,465.42,162.51Zm-3.83.05c0,1.06.61,1.86,1.47,1.86s1.47-.79,1.47-1.88c0-.82-.41-1.86-1.45-1.86S461.59,161.64,461.59,162.56Z"/>
    <path class="b3cf0610-f4d0-4c0e-a6eb-2c59d36d07ca" d="M469.64,158.77a.55.55,0,0,1-1.09,0,.54.54,0,0,1,.55-.55A.52.52,0,0,1,469.64,158.77Zm-1,6.2v-4.84h.88V165Z"/>
    <path class="b3cf0610-f4d0-4c0e-a6eb-2c59d36d07ca" d="M470.88,164.07a2.31,2.31,0,0,0,1.16.35c.64,0,.94-.32.94-.72s-.25-.65-.9-.89c-.87-.31-1.28-.79-1.28-1.37a1.49,1.49,0,0,1,1.67-1.42,2.42,2.42,0,0,1,1.19.3l-.22.64a1.88,1.88,0,0,0-1-.28c-.52,0-.81.3-.81.66s.29.58.92.82c.84.32,1.27.74,1.27,1.46s-.66,1.45-1.81,1.45a2.76,2.76,0,0,1-1.36-.33Z"/>
    <path class="b3cf0610-f4d0-4c0e-a6eb-2c59d36d07ca" d="M477,165c0-.33,0-.82,0-1.25v-5.85H478v3h0a1.8,1.8,0,0,1,1.65-.89,2.16,2.16,0,0,1,2,2.47,2.29,2.29,0,0,1-2.16,2.59,1.72,1.72,0,0,1-1.62-.91h0l0,.8ZM478,163a1.65,1.65,0,0,0,0,.32,1.36,1.36,0,0,0,1.32,1c.92,0,1.47-.75,1.47-1.86s-.5-1.8-1.44-1.8A1.4,1.4,0,0,0,478,161.8a1.73,1.73,0,0,0-.05.36Z"/>
    <path class="b3cf0610-f4d0-4c0e-a6eb-2c59d36d07ca" d="M483.26,162.71a1.55,1.55,0,0,0,1.66,1.68,3.16,3.16,0,0,0,1.33-.25l.15.63a3.86,3.86,0,0,1-1.6.3,2.25,2.25,0,0,1-2.38-2.44,2.35,2.35,0,0,1,2.27-2.61,2,2,0,0,1,2,2.28,2.07,2.07,0,0,1,0,.41Zm2.57-.63a1.25,1.25,0,0,0-1.21-1.43,1.46,1.46,0,0,0-1.35,1.43Z"/>
    <path class="b3cf0610-f4d0-4c0e-a6eb-2c59d36d07ca" d="M488.84,158.74v1.39h1.25v.67h-1.25v2.61c0,.6.17.94.66.94a1.81,1.81,0,0,0,.5-.06l0,.66a2.05,2.05,0,0,1-.77.12,1.22,1.22,0,0,1-.95-.37,1.79,1.79,0,0,1-.34-1.26V160.8h-.75v-.67H488V159Z"/>
    <path class="b3cf0610-f4d0-4c0e-a6eb-2c59d36d07ca" d="M492.15,158.74v1.39h1.26v.67h-1.26v2.61c0,.6.17.94.66.94a2,2,0,0,0,.51-.06l0,.66a2.15,2.15,0,0,1-.78.12,1.22,1.22,0,0,1-.95-.37,1.79,1.79,0,0,1-.34-1.26V160.8h-.75v-.67h.75V159Z"/>
    <path class="b3cf0610-f4d0-4c0e-a6eb-2c59d36d07ca" d="M494.83,162.71a1.55,1.55,0,0,0,1.66,1.68,3.18,3.18,0,0,0,1.34-.25l.14.63a3.83,3.83,0,0,1-1.6.3,2.25,2.25,0,0,1-2.38-2.44,2.35,2.35,0,0,1,2.27-2.61,2,2,0,0,1,2,2.28,2.07,2.07,0,0,1,0,.41Zm2.58-.63a1.25,1.25,0,0,0-1.22-1.43,1.46,1.46,0,0,0-1.35,1.43Z"/>
    <path class="b3cf0610-f4d0-4c0e-a6eb-2c59d36d07ca" d="M499.35,161.64c0-.57,0-1.06,0-1.51h.77l0,1h0a1.45,1.45,0,0,1,1.34-1.06,1,1,0,0,1,.25,0v.83a1.32,1.32,0,0,0-.3,0,1.23,1.23,0,0,0-1.18,1.13,2.48,2.48,0,0,0,0,.41V165h-.87Z"/>
    <path class="b3cf0610-f4d0-4c0e-a6eb-2c59d36d07ca" d="M501.88,164.45a.59.59,0,0,1,.6-.63.63.63,0,1,1-.6.63Z"/>
  </g>
  <g>
    <path class="bbb80932-d6db-4807-96ea-ba4ced1e41bf" d="M86.81,30c-.07-1.31-.15-2.9-.14-4.07h0c-.32,1.1-.72,2.28-1.19,3.58l-1.67,4.58h-.92l-1.53-4.49c-.45-1.33-.83-2.55-1.09-3.67h0c0,1.17-.1,2.76-.18,4.17l-.26,4H78.6l.66-9.44h1.55l1.62,4.56c.39,1.17.71,2.2.95,3.18h0c.24-1,.57-2,1-3.18l1.69-4.56h1.55l.59,9.44H87.05Z"/>
    <path class="bbb80932-d6db-4807-96ea-ba4ced1e41bf" d="M90.84,31a2.17,2.17,0,0,0,2.32,2.36A4.57,4.57,0,0,0,95,33l.21.88a5.6,5.6,0,0,1-2.26.42,3.15,3.15,0,0,1-3.33-3.42c0-2,1.21-3.66,3.18-3.66,2.21,0,2.8,1.95,2.8,3.2a5.55,5.55,0,0,1,0,.57Zm3.61-.88a1.75,1.75,0,0,0-1.71-2,2,2,0,0,0-1.89,2Z"/>
    <path class="bbb80932-d6db-4807-96ea-ba4ced1e41bf" d="M100.92,34.19l-.1-.86h0a2.51,2.51,0,0,1-2.07,1,1.93,1.93,0,0,1-2.08-1.94c0-1.64,1.46-2.54,4.08-2.53v-.14a1.39,1.39,0,0,0-1.54-1.56,3.39,3.39,0,0,0-1.77.5l-.28-.81a4.18,4.18,0,0,1,2.23-.61c2.07,0,2.58,1.42,2.58,2.78v2.53a10,10,0,0,0,.11,1.63Zm-.18-3.46c-1.35,0-2.87.21-2.87,1.53A1.09,1.09,0,0,0,99,33.43a1.7,1.7,0,0,0,1.64-1.13,1.4,1.4,0,0,0,.07-.39Z"/>
    <path class="bbb80932-d6db-4807-96ea-ba4ced1e41bf" d="M103.74,32.93a3.24,3.24,0,0,0,1.63.49c.9,0,1.32-.45,1.32-1s-.35-.91-1.26-1.25c-1.22-.43-1.8-1.1-1.8-1.92a2.1,2.1,0,0,1,2.34-2,3.44,3.44,0,0,1,1.67.42l-.31.9a2.65,2.65,0,0,0-1.39-.39c-.72,0-1.13.42-1.13.92s.41.82,1.29,1.15c1.17.45,1.78,1,1.78,2,0,1.19-.93,2-2.54,2a3.84,3.84,0,0,1-1.9-.46Z"/>
    <path class="bbb80932-d6db-4807-96ea-ba4ced1e41bf" d="M115.13,32.34c0,.7,0,1.32.06,1.85h-1.1L114,33.08h0a2.56,2.56,0,0,1-2.25,1.26c-1.06,0-2.34-.59-2.34-3v-4h1.24v3.75c0,1.29.39,2.16,1.51,2.16a1.79,1.79,0,0,0,1.63-1.12,2.08,2.08,0,0,0,.11-.63V27.41h1.23Z"/>
    <path class="bbb80932-d6db-4807-96ea-ba4ced1e41bf" d="M117.17,29.52c0-.79,0-1.48-.06-2.11h1.08l0,1.33h.06a2,2,0,0,1,1.88-1.49,1.23,1.23,0,0,1,.35.05v1.16a1.76,1.76,0,0,0-.42,0A1.72,1.72,0,0,0,118.45,30a3.22,3.22,0,0,0-.06.57v3.62h-1.22Z"/>
    <path class="bbb80932-d6db-4807-96ea-ba4ced1e41bf" d="M122.29,31a2.18,2.18,0,0,0,2.33,2.36A4.61,4.61,0,0,0,126.5,33l.21.88a5.64,5.64,0,0,1-2.26.42,3.14,3.14,0,0,1-3.33-3.42c0-2,1.2-3.66,3.18-3.66,2.21,0,2.8,1.95,2.8,3.2a5.55,5.55,0,0,1,0,.57Zm3.62-.88a1.76,1.76,0,0,0-1.71-2,2,2,0,0,0-1.89,2Z"/>
    <path class="bbb80932-d6db-4807-96ea-ba4ced1e41bf" d="M131.46,32.7a4.31,4.31,0,0,0,2.19.62c1.25,0,2-.66,2-1.61s-.5-1.39-1.77-1.88c-1.55-.54-2.5-1.34-2.5-2.67s1.22-2.57,3.06-2.57a4.24,4.24,0,0,1,2.08.47l-.33,1a3.75,3.75,0,0,0-1.8-.45c-1.28,0-1.78.77-1.78,1.42,0,.88.58,1.31,1.88,1.82,1.6.61,2.41,1.38,2.41,2.77s-1.08,2.72-3.3,2.72a4.91,4.91,0,0,1-2.41-.6Z"/>
    <path class="bbb80932-d6db-4807-96ea-ba4ced1e41bf" d="M139.94,25.46v1.95h1.76v.94h-1.76V32c0,.84.23,1.32.92,1.32a2.82,2.82,0,0,0,.71-.08l.06.92a3,3,0,0,1-1.09.17,1.68,1.68,0,0,1-1.33-.52,2.5,2.5,0,0,1-.48-1.76v-3.7h-1v-.94h1V25.78Z"/>
    <path class="bbb80932-d6db-4807-96ea-ba4ced1e41bf" d="M148.76,32.34c0,.7,0,1.32.05,1.85h-1.09l-.07-1.11h0a2.53,2.53,0,0,1-2.24,1.26c-1.06,0-2.34-.59-2.34-3v-4h1.24v3.75c0,1.29.39,2.16,1.51,2.16a1.77,1.77,0,0,0,1.62-1.12,1.81,1.81,0,0,0,.11-.63V27.41h1.24Z"/>
    <path class="bbb80932-d6db-4807-96ea-ba4ced1e41bf" d="M156.65,24.24v8.2c0,.6,0,1.29.06,1.75H155.6l0-1.18h0a2.51,2.51,0,0,1-2.31,1.33c-1.64,0-2.9-1.38-2.9-3.44,0-2.26,1.38-3.65,3-3.65a2.28,2.28,0,0,1,2,1h0V24.24Zm-1.23,5.93a1.91,1.91,0,0,0-1.83-2c-1.28,0-2,1.12-2,2.62s.68,2.51,2,2.51a2,2,0,0,0,1.86-2Z"/>
    <path class="bbb80932-d6db-4807-96ea-ba4ced1e41bf" d="M159.38,31a2.18,2.18,0,0,0,2.33,2.36,4.52,4.52,0,0,0,1.87-.35l.21.88a5.54,5.54,0,0,1-2.25.42,3.15,3.15,0,0,1-3.34-3.42c0-2,1.21-3.66,3.18-3.66,2.22,0,2.81,1.95,2.81,3.2a3.4,3.4,0,0,1-.05.57Zm3.61-.88a1.75,1.75,0,0,0-1.7-2,2.05,2.05,0,0,0-1.9,2Z"/>
    <path class="bbb80932-d6db-4807-96ea-ba4ced1e41bf" d="M165.71,29.24c0-.7,0-1.27-.06-1.83h1.09l.07,1.12h0a2.51,2.51,0,0,1,2.24-1.28c.94,0,2.4.56,2.4,2.89v4h-1.23V30.28c0-1.09-.41-2-1.57-2A1.76,1.76,0,0,0,167,29.54a1.91,1.91,0,0,0-.08.57v4.08h-1.23Z"/>
    <path class="bbb80932-d6db-4807-96ea-ba4ced1e41bf" d="M174.91,25.46v1.95h1.76v.94h-1.76V32c0,.84.24,1.32.92,1.32a3,3,0,0,0,.72-.08l0,.92a3,3,0,0,1-1.09.17,1.68,1.68,0,0,1-1.33-.52,2.5,2.5,0,0,1-.48-1.76v-3.7h-1v-.94h1V25.78Z"/>
    <path class="bbb80932-d6db-4807-96ea-ba4ced1e41bf" d="M181.07,24.75h1.21v8.42h4v1h-5.25Z"/>
    <path class="bbb80932-d6db-4807-96ea-ba4ced1e41bf" d="M188.12,31a2.18,2.18,0,0,0,2.33,2.36,4.52,4.52,0,0,0,1.87-.35l.21.88a5.54,5.54,0,0,1-2.25.42A3.14,3.14,0,0,1,187,30.91c0-2,1.2-3.66,3.17-3.66,2.22,0,2.81,1.95,2.81,3.2a3.4,3.4,0,0,1-.05.57Zm3.62-.88a1.76,1.76,0,0,0-1.71-2,2,2,0,0,0-1.89,2Z"/>
    <path class="bbb80932-d6db-4807-96ea-ba4ced1e41bf" d="M198.2,34.19l-.09-.86h-.05a2.48,2.48,0,0,1-2.07,1,1.93,1.93,0,0,1-2.07-1.94c0-1.64,1.45-2.54,4.07-2.53v-.14a1.39,1.39,0,0,0-1.54-1.56,3.33,3.33,0,0,0-1.76.5l-.28-.81a4.14,4.14,0,0,1,2.22-.61c2.08,0,2.58,1.42,2.58,2.78v2.53a10,10,0,0,0,.11,1.63ZM198,30.73c-1.34,0-2.87.21-2.87,1.53a1.09,1.09,0,0,0,1.16,1.17A1.68,1.68,0,0,0,198,32.3a1.4,1.4,0,0,0,.07-.39Z"/>
    <path class="bbb80932-d6db-4807-96ea-ba4ced1e41bf" d="M201.2,29.52c0-.79,0-1.48-.06-2.11h1.08l0,1.33h.06a2,2,0,0,1,1.87-1.49,1.36,1.36,0,0,1,.36.05v1.16a1.85,1.85,0,0,0-.43,0A1.74,1.74,0,0,0,202.47,30a3.27,3.27,0,0,0-.05.57v3.62H201.2Z"/>
    <path class="bbb80932-d6db-4807-96ea-ba4ced1e41bf" d="M205.83,29.24c0-.7,0-1.27-.05-1.83h1.09l.07,1.12h0a2.5,2.5,0,0,1,2.24-1.28c.94,0,2.39.56,2.39,2.89v4h-1.23V30.28c0-1.09-.41-2-1.57-2a1.74,1.74,0,0,0-1.65,1.26,1.62,1.62,0,0,0-.09.57v4.08h-1.23Z"/>
    <path class="bbb80932-d6db-4807-96ea-ba4ced1e41bf" d="M215,25.5a.72.72,0,0,1-.78.76.74.74,0,0,1-.74-.76.75.75,0,0,1,.77-.77A.73.73,0,0,1,215,25.5Zm-1.37,8.69V27.41h1.23v6.78Z"/>
    <path class="bbb80932-d6db-4807-96ea-ba4ced1e41bf" d="M216.88,29.24c0-.7,0-1.27-.06-1.83h1.09l.07,1.12h0a2.51,2.51,0,0,1,2.24-1.28c.94,0,2.4.56,2.4,2.89v4h-1.23V30.28c0-1.09-.41-2-1.57-2a1.75,1.75,0,0,0-1.66,1.26,1.91,1.91,0,0,0-.08.57v4.08h-1.23Z"/>
    <path class="bbb80932-d6db-4807-96ea-ba4ced1e41bf" d="M230.49,27.41c0,.49-.06,1-.06,1.86v3.94c0,1.55-.31,2.51-1,3.09a3.6,3.6,0,0,1-2.47.82,4.39,4.39,0,0,1-2.25-.56l.3-.94a3.84,3.84,0,0,0,2,.53c1.26,0,2.19-.66,2.19-2.37V33h0A2.43,2.43,0,0,1,227,34.16a3,3,0,0,1-2.88-3.31c0-2.29,1.5-3.6,3.05-3.6a2.27,2.27,0,0,1,2.12,1.18h0l.06-1Zm-1.28,2.67a1.66,1.66,0,0,0-.07-.56,1.77,1.77,0,0,0-1.72-1.3c-1.18,0-2,1-2,2.56,0,1.34.68,2.44,2,2.44A1.8,1.8,0,0,0,229.12,32a2.15,2.15,0,0,0,.09-.66Z"/>
    <path class="bbb80932-d6db-4807-96ea-ba4ced1e41bf" d="M232,33.46a.84.84,0,1,1,.82.88A.82.82,0,0,1,232,33.46Z"/>
    <path class="bbb80932-d6db-4807-96ea-ba4ced1e41bf" d="M78.85,51V41.55h1.33l3,4.77a25.5,25.5,0,0,1,1.69,3.07h0c-.11-1.26-.14-2.41-.14-3.88v-4h1.15V51H84.71l-3-4.79A28.71,28.71,0,0,1,80,43.05h0c.07,1.19.1,2.33.1,3.89v4Z"/>
    <path class="bbb80932-d6db-4807-96ea-ba4ced1e41bf" d="M94.16,47.54a3.31,3.31,0,0,1-3.38,3.6,3.22,3.22,0,0,1-3.25-3.49,3.32,3.32,0,0,1,3.36-3.6A3.22,3.22,0,0,1,94.16,47.54Zm-5.38.07c0,1.49.85,2.61,2.06,2.61s2.06-1.11,2.06-2.64c0-1.14-.58-2.6-2-2.6S88.78,46.32,88.78,47.61Z"/>
    <path class="bbb80932-d6db-4807-96ea-ba4ced1e41bf" d="M97.19,42.26v2H99v.94H97.19V48.8c0,.84.24,1.32.93,1.32a2.82,2.82,0,0,0,.71-.08l.06.92a3,3,0,0,1-1.09.17,1.68,1.68,0,0,1-1.33-.52A2.5,2.5,0,0,1,96,48.85v-3.7h-1v-.94h1V42.58Z"/>
    <path class="bbb80932-d6db-4807-96ea-ba4ced1e41bf" d="M103.18,49.5a4.31,4.31,0,0,0,2.19.62c1.25,0,2-.66,2-1.61s-.5-1.39-1.77-1.88c-1.55-.54-2.5-1.34-2.5-2.67s1.22-2.57,3.06-2.57a4.24,4.24,0,0,1,2.08.47l-.33,1a3.75,3.75,0,0,0-1.8-.45c-1.28,0-1.77.77-1.77,1.42,0,.88.57,1.31,1.87,1.82,1.6.61,2.41,1.38,2.41,2.77s-1.08,2.72-3.3,2.72a4.94,4.94,0,0,1-2.41-.6Z"/>
    <path class="bbb80932-d6db-4807-96ea-ba4ced1e41bf" d="M111.66,42.26v2h1.76v.94h-1.76V48.8c0,.84.23,1.32.92,1.32a2.82,2.82,0,0,0,.71-.08l.06.92a3,3,0,0,1-1.09.17,1.68,1.68,0,0,1-1.33-.52,2.5,2.5,0,0,1-.48-1.76v-3.7h-1v-.94h1V42.58Z"/>
    <path class="bbb80932-d6db-4807-96ea-ba4ced1e41bf" d="M120.48,49.14c0,.7,0,1.32,0,1.85h-1.09l-.07-1.11h0a2.53,2.53,0,0,1-2.24,1.26c-1.06,0-2.34-.59-2.34-3v-4H116V48c0,1.29.39,2.16,1.51,2.16A1.77,1.77,0,0,0,119.13,49a1.81,1.81,0,0,0,.12-.63V44.21h1.23Z"/>
    <path class="bbb80932-d6db-4807-96ea-ba4ced1e41bf" d="M128.37,41v8.2c0,.6,0,1.29.06,1.75h-1.11l0-1.18h0a2.51,2.51,0,0,1-2.31,1.33c-1.64,0-2.9-1.38-2.9-3.44,0-2.26,1.39-3.65,3-3.65a2.25,2.25,0,0,1,2,1h0V41ZM127.14,47A1.91,1.91,0,0,0,125.31,45c-1.28,0-2,1.12-2,2.62s.68,2.51,2,2.51a2,2,0,0,0,1.86-2Z"/>
    <path class="bbb80932-d6db-4807-96ea-ba4ced1e41bf" d="M131.1,47.82a2.18,2.18,0,0,0,2.33,2.36,4.52,4.52,0,0,0,1.87-.35l.21.88a5.54,5.54,0,0,1-2.25.42,3.15,3.15,0,0,1-3.34-3.42c0-2,1.21-3.66,3.18-3.66,2.22,0,2.81,2,2.81,3.2a3.4,3.4,0,0,1,0,.57Zm3.61-.88a1.75,1.75,0,0,0-1.7-2,2,2,0,0,0-1.89,2Z"/>
    <path class="bbb80932-d6db-4807-96ea-ba4ced1e41bf" d="M137.43,46c0-.7,0-1.27-.06-1.83h1.09l.07,1.12h0a2.51,2.51,0,0,1,2.24-1.28c.94,0,2.4.56,2.4,2.89V51H142V47.08c0-1.09-.41-2-1.57-2a1.74,1.74,0,0,0-1.65,1.26,1.62,1.62,0,0,0-.09.57V51h-1.23Z"/>
    <path class="bbb80932-d6db-4807-96ea-ba4ced1e41bf" d="M146.63,42.26v2h1.76v.94h-1.76V48.8c0,.84.24,1.32.92,1.32a3,3,0,0,0,.72-.08l0,.92a3,3,0,0,1-1.09.17,1.68,1.68,0,0,1-1.33-.52,2.5,2.5,0,0,1-.48-1.76v-3.7h-1v-.94h1V42.58Z"/>
    <path class="bbb80932-d6db-4807-96ea-ba4ced1e41bf" d="M152.79,41.66a13.89,13.89,0,0,1,2.34-.18,3.89,3.89,0,0,1,2.64.78,2.55,2.55,0,0,1,.83,2,2.75,2.75,0,0,1-.73,2,3.88,3.88,0,0,1-2.88,1,4.32,4.32,0,0,1-1-.08V51h-1.21ZM154,46.21a4.15,4.15,0,0,0,1,.1c1.47,0,2.37-.71,2.37-2s-.88-1.85-2.23-1.85a5.51,5.51,0,0,0-1.15.1Z"/>
    <path class="bbb80932-d6db-4807-96ea-ba4ced1e41bf" d="M160.53,47.82a2.17,2.17,0,0,0,2.32,2.36,4.54,4.54,0,0,0,1.88-.35l.21.88a5.58,5.58,0,0,1-2.25.42,3.15,3.15,0,0,1-3.34-3.42c0-2,1.21-3.66,3.18-3.66,2.22,0,2.8,2,2.8,3.2a3.65,3.65,0,0,1,0,.57Zm3.61-.88a1.75,1.75,0,0,0-1.71-2,2,2,0,0,0-1.89,2Z"/>
    <path class="bbb80932-d6db-4807-96ea-ba4ced1e41bf" d="M166.86,46.32c0-.79,0-1.48-.06-2.11h1.08l0,1.33H168a2,2,0,0,1,1.87-1.49,1.23,1.23,0,0,1,.35.05v1.16a1.71,1.71,0,0,0-.42,0,1.74,1.74,0,0,0-1.65,1.58,3.22,3.22,0,0,0-.06.57V51h-1.21Z"/>
    <path class="bbb80932-d6db-4807-96ea-ba4ced1e41bf" d="M172,51V45.15H171v-.94H172v-.32a3.21,3.21,0,0,1,.78-2.37,2.37,2.37,0,0,1,1.66-.63,2.83,2.83,0,0,1,1.05.2l-.17.95a1.72,1.72,0,0,0-.78-.16c-1.06,0-1.32.93-1.32,2v.37h1.64v.94H173.2V51Z"/>
    <path class="bbb80932-d6db-4807-96ea-ba4ced1e41bf" d="M181.9,47.54a3.31,3.31,0,0,1-3.38,3.6,3.22,3.22,0,0,1-3.25-3.49,3.31,3.31,0,0,1,3.36-3.6A3.22,3.22,0,0,1,181.9,47.54Zm-5.38.07c0,1.49.85,2.61,2.06,2.61s2-1.11,2-2.64c0-1.14-.57-2.6-2-2.6S176.52,46.32,176.52,47.61Z"/>
    <path class="bbb80932-d6db-4807-96ea-ba4ced1e41bf" d="M183.45,46.32c0-.79,0-1.48-.06-2.11h1.08l0,1.33h.06a2,2,0,0,1,1.87-1.49,1.23,1.23,0,0,1,.35.05v1.16a1.71,1.71,0,0,0-.42,0,1.73,1.73,0,0,0-1.65,1.58,3.22,3.22,0,0,0-.06.57V51h-1.21Z"/>
    <path class="bbb80932-d6db-4807-96ea-ba4ced1e41bf" d="M188.08,46c0-.7,0-1.27-.06-1.83h1.08l.06,1.09h0a2.35,2.35,0,0,1,2.13-1.25,2,2,0,0,1,1.92,1.36h0a2.86,2.86,0,0,1,.75-.88,2.32,2.32,0,0,1,1.5-.48c.9,0,2.23.59,2.23,3v4h-1.21V47.15c0-1.3-.47-2.09-1.47-2.09a1.59,1.59,0,0,0-1.45,1.12,2,2,0,0,0-.1.62V51h-1.21V46.93c0-1.08-.47-1.87-1.41-1.87a1.85,1.85,0,0,0-1.63,1.84V51h-1.2Z"/>
    <path class="bbb80932-d6db-4807-96ea-ba4ced1e41bf" d="M203.51,51l-.1-.86h0a2.51,2.51,0,0,1-2.07,1,1.93,1.93,0,0,1-2.08-1.94c0-1.64,1.46-2.54,4.08-2.53v-.14A1.4,1.4,0,0,0,201.76,45a3.39,3.39,0,0,0-1.77.51l-.28-.81a4.18,4.18,0,0,1,2.23-.61c2.07,0,2.58,1.42,2.58,2.78v2.53a10,10,0,0,0,.11,1.63Zm-.18-3.46c-1.35,0-2.87.21-2.87,1.53a1.09,1.09,0,0,0,1.16,1.17,1.7,1.7,0,0,0,1.64-1.13,1.4,1.4,0,0,0,.07-.39Z"/>
    <path class="bbb80932-d6db-4807-96ea-ba4ced1e41bf" d="M206.5,46c0-.7,0-1.27-.05-1.83h1.09l.07,1.12h0a2.5,2.5,0,0,1,2.24-1.28c.94,0,2.39.56,2.39,2.89V51H211V47.08c0-1.09-.4-2-1.57-2a1.74,1.74,0,0,0-1.65,1.26,1.64,1.64,0,0,0-.08.57V51H206.5Z"/>
    <path class="bbb80932-d6db-4807-96ea-ba4ced1e41bf" d="M219.11,50.74a4.73,4.73,0,0,1-2,.39,3.22,3.22,0,0,1-3.38-3.46,3.45,3.45,0,0,1,3.65-3.6,4.05,4.05,0,0,1,1.7.35l-.28.95a2.8,2.8,0,0,0-1.42-.32,2.56,2.56,0,0,0-.05,5.1,3.45,3.45,0,0,0,1.52-.34Z"/>
    <path class="bbb80932-d6db-4807-96ea-ba4ced1e41bf" d="M221.15,47.82a2.17,2.17,0,0,0,2.32,2.36,4.54,4.54,0,0,0,1.88-.35l.21.88a5.58,5.58,0,0,1-2.25.42A3.15,3.15,0,0,1,220,47.71c0-2,1.21-3.66,3.18-3.66,2.21,0,2.8,2,2.8,3.2a5.55,5.55,0,0,1,0,.57Zm3.61-.88a1.75,1.75,0,0,0-1.71-2,2,2,0,0,0-1.89,2Z"/>
    <path class="bbb80932-d6db-4807-96ea-ba4ced1e41bf" d="M227,50.26a.84.84,0,1,1,.83.88A.82.82,0,0,1,227,50.26Z"/>
  </g>
  <g>
    <g>
      <rect class="bbb80932-d6db-4807-96ea-ba4ced1e41bf" x="10.97" y="12.39" width="55.54" height="55.54" rx="6.44"/>
      <g>
        <path id="e68f98b4-1107-467a-ad2b-aa290d5ff746" data-name="MJMATHI-3B3" class="b3cf0610-f4d0-4c0e-a6eb-2c59d36d07ca" d="M10.18,43.41c-1,0-1.45-.22-1.45-.65a7.84,7.84,0,0,1,1.09-3.34A28.07,28.07,0,0,1,12.72,35a14.86,14.86,0,0,1,4.58-3.85,13,13,0,0,1,5.59-1.67,20.6,20.6,0,0,1,2.4.08A9.54,9.54,0,0,1,31,33.46q2.25,3.12,3.85,9.52a31.56,31.56,0,0,1,1,6.17c0,.19,0,.29.07.29l.87-2q1.45-3.7,3.27-7.77t3.12-6.61a22.49,22.49,0,0,1,1.6-2.84A4.7,4.7,0,0,1,46,30.19h.94c.29.29.44.51.44.65A20.3,20.3,0,0,1,45.85,34q-1.53,2.91-4.29,9.23T36.33,56.34a27.81,27.81,0,0,0-.94,4.72c-.34,2.38-.85,4.94-1.53,7.7a45.45,45.45,0,0,1-2,6.54c-.53,1.21-1.18,1.84-2,1.89s-1.23-.68-1.23-2q0-3.63,3.92-16l.43-1.38.08-1.31c0-.49.07-1.24.07-2.25q0-11.41-4.14-15.77a9.69,9.69,0,0,0-6.9-2.76,11.5,11.5,0,0,0-6.4,1.89,10.53,10.53,0,0,0-4.14,5c-.09.44-.19.66-.29.66A2.5,2.5,0,0,1,10.18,43.41Z"/>
        <path id="b7a2699d-e2e3-47db-96bc-9ca8b2bbcbe6" data-name="MJMAIN-5E" class="b3cf0610-f4d0-4c0e-a6eb-2c59d36d07ca" d="M18.75,22.13l10-9.74.58.58q9.43,9,9.44,9.16l-1.89,2.1c-.09-.05-1.5-1.26-4.21-3.63l-3.85-3.34-4,3.41c-.63.54-1.26,1.09-1.89,1.67s-1.13,1.05-1.52,1.38l-.58.44c-.1.1-.46-.24-1.09-1Z"/>
      </g>
    </g>
    <g>
      <path id="a4dabef1-cd40-49cd-8970-f0dab645a513" data-name="MJMATHI-3B1" class="b3cf0610-f4d0-4c0e-a6eb-2c59d36d07ca" d="M44.28,58.27a10.83,10.83,0,0,1,3.41-7.92,10.38,10.38,0,0,1,7.49-3.41,6.2,6.2,0,0,1,4.44,1.58,8,8,0,0,1,2.26,3.89,15.36,15.36,0,0,1,.27,2.65v1.15a23.21,23.21,0,0,0,3-6.58,2.1,2.1,0,0,1,.23-.63,1.46,1.46,0,0,1,.64-.12c.55,0,.83.1.83.32a7.24,7.24,0,0,1-.36,1.54,23.36,23.36,0,0,1-1.42,3.37,24.43,24.43,0,0,1-2.42,4l-.44.56,0,.95a13.82,13.82,0,0,0,.32,3q.24.79.75.84a2.25,2.25,0,0,0,1-.44,2,2,0,0,0,.68-.91c0-.19.12-.29.19-.32a3.52,3.52,0,0,1,.6-.08c.53,0,.79.11.79.32a2,2,0,0,1-.24.75A3.59,3.59,0,0,1,65,64.26a3.65,3.65,0,0,1-1.75.59H63A3.61,3.61,0,0,1,59.34,62l-.12-.28-.44.32a11.53,11.53,0,0,1-1.19.79,14.72,14.72,0,0,1-1.78.91,15.75,15.75,0,0,1-2.3.79,9.54,9.54,0,0,1-2.53.36,6.29,6.29,0,0,1-4.92-2A6.71,6.71,0,0,1,44.28,58.27Zm6.89,5.16a9.74,9.74,0,0,0,3.89-.84A10.31,10.31,0,0,0,58,60.89L58.9,60q-.07-5.67-.27-7.06Q58.08,48.4,55,48.4q-2.73,0-4.8,2.9a13.57,13.57,0,0,0-1.74,4.28,20.24,20.24,0,0,0-.71,4.12,3.57,3.57,0,0,0,1,2.81A3.77,3.77,0,0,0,51.17,63.43Z"/>
      <path id="b9257aa8-b8c3-4640-8d37-26ee2c0c1b2d" data-name="MJMAIN-5E" class="b3cf0610-f4d0-4c0e-a6eb-2c59d36d07ca" d="M51.21,42.93l5.43-5.31.32.32c3.44,3.28,5.15,4.94,5.15,5l-1,1.15s-.82-.68-2.3-2l-2.1-1.82L54.5,42.14c-.34.29-.68.6-1,.91l-.83.76-.32.23c0,.06-.25-.13-.59-.55Z"/>
    </g>
  </g>
  <g>
    <path class="bbb80932-d6db-4807-96ea-ba4ced1e41bf" d="M12.35,153.45a3.08,3.08,0,0,0,1.56.44c.89,0,1.4-.47,1.4-1.15s-.35-1-1.26-1.34c-1.1-.39-1.78-1-1.78-1.91a1.94,1.94,0,0,1,2.18-1.83,3,3,0,0,1,1.48.33l-.24.71a2.6,2.6,0,0,0-1.27-.32c-.92,0-1.27.55-1.27,1,0,.63.41.94,1.34,1.3,1.13.44,1.71,1,1.71,2s-.76,1.94-2.35,1.94a3.48,3.48,0,0,1-1.72-.43Z"/>
    <path class="bbb80932-d6db-4807-96ea-ba4ced1e41bf" d="M17.92,152.25a1.55,1.55,0,0,0,1.66,1.68,3.22,3.22,0,0,0,1.34-.25l.14.63a3.86,3.86,0,0,1-1.6.3,2.25,2.25,0,0,1-2.38-2.44,2.35,2.35,0,0,1,2.27-2.61,2,2,0,0,1,2,2.28,3.32,3.32,0,0,1,0,.41Zm2.58-.63a1.25,1.25,0,0,0-1.22-1.43,1.46,1.46,0,0,0-1.35,1.43Z"/>
    <path class="bbb80932-d6db-4807-96ea-ba4ced1e41bf" d="M22.44,147.42h.88v7.09h-.88Z"/>
    <path class="bbb80932-d6db-4807-96ea-ba4ced1e41bf" d="M25.29,152.25A1.55,1.55,0,0,0,27,153.93a3.13,3.13,0,0,0,1.33-.25l.15.63a3.9,3.9,0,0,1-1.6.3,2.25,2.25,0,0,1-2.38-2.44,2.35,2.35,0,0,1,2.27-2.61,2,2,0,0,1,2,2.28,3.32,3.32,0,0,1,0,.41Zm2.57-.63a1.25,1.25,0,0,0-1.21-1.43,1.46,1.46,0,0,0-1.35,1.43Z"/>
    <path class="bbb80932-d6db-4807-96ea-ba4ced1e41bf" d="M33.25,154.33a3.23,3.23,0,0,1-1.38.28,2.3,2.3,0,0,1-2.41-2.47,2.46,2.46,0,0,1,2.6-2.57,2.93,2.93,0,0,1,1.21.25l-.2.68a2,2,0,0,0-1-.23,1.67,1.67,0,0,0-1.71,1.83A1.66,1.66,0,0,0,32,153.91a2.5,2.5,0,0,0,1.08-.24Z"/>
    <path class="bbb80932-d6db-4807-96ea-ba4ced1e41bf" d="M35.48,148.28v1.39h1.25v.67H35.48V153c0,.6.17.94.66.94a2,2,0,0,0,.51-.06l0,.66a2.15,2.15,0,0,1-.78.12,1.22,1.22,0,0,1-.95-.37,1.79,1.79,0,0,1-.34-1.26v-2.64h-.75v-.67h.75v-1.16Z"/>
    <path class="bbb80932-d6db-4807-96ea-ba4ced1e41bf" d="M42.52,154.51l-.06-.61h0a1.77,1.77,0,0,1-1.47.72,1.38,1.38,0,0,1-1.48-1.39c0-1.17,1-1.81,2.91-1.8v-.1a1,1,0,0,0-1.1-1.12,2.41,2.41,0,0,0-1.26.36l-.2-.58a3,3,0,0,1,1.59-.43c1.47,0,1.83,1,1.83,2v1.81a6.81,6.81,0,0,0,.08,1.16ZM42.4,152c-1,0-2,.15-2,1.09a.78.78,0,0,0,.83.84,1.18,1.18,0,0,0,1.16-.81.71.71,0,0,0,.06-.28Z"/>
    <path class="bbb80932-d6db-4807-96ea-ba4ced1e41bf" d="M46.79,151.25c0-.62,0-1.12,0-1.58h.79l0,.83h0a1.9,1.9,0,0,1,1.71-.94,2.19,2.19,0,0,1,2,2.46c0,1.74-1.06,2.6-2.19,2.6a1.7,1.7,0,0,1-1.49-.76h0v2.63h-.87Zm.87,1.29a2,2,0,0,0,0,.36,1.36,1.36,0,0,0,1.32,1c.92,0,1.46-.76,1.46-1.87s-.51-1.8-1.44-1.8a1.4,1.4,0,0,0-1.32,1.09,1.43,1.43,0,0,0-.06.36Z"/>
    <path class="bbb80932-d6db-4807-96ea-ba4ced1e41bf" d="M52.48,151.18c0-.57,0-1.06,0-1.51h.77l0,1h0a1.45,1.45,0,0,1,1.34-1.06.88.88,0,0,1,.24,0v.83a1.26,1.26,0,0,0-.3,0,1.23,1.23,0,0,0-1.17,1.13,2.48,2.48,0,0,0,0,.41v2.58h-.87Z"/>
    <path class="bbb80932-d6db-4807-96ea-ba4ced1e41bf" d="M56.14,152.25a1.55,1.55,0,0,0,1.65,1.68,3.18,3.18,0,0,0,1.34-.25l.15.63a3.92,3.92,0,0,1-1.61.3,2.25,2.25,0,0,1-2.37-2.44,2.35,2.35,0,0,1,2.26-2.61,2.05,2.05,0,0,1,2,2.28,3.32,3.32,0,0,1,0,.41Zm2.57-.63a1.25,1.25,0,0,0-1.21-1.43,1.46,1.46,0,0,0-1.35,1.43Z"/>
    <path class="bbb80932-d6db-4807-96ea-ba4ced1e41bf" d="M61.72,148.28v1.39H63v.67H61.72V153c0,.6.17.94.66.94a1.93,1.93,0,0,0,.5-.06l0,.66a2.13,2.13,0,0,1-.77.12,1.22,1.22,0,0,1-.95-.37,1.79,1.79,0,0,1-.34-1.26v-2.64h-.75v-.67h.75v-1.16Z"/>
    <path class="bbb80932-d6db-4807-96ea-ba4ced1e41bf" d="M64.4,152.25a1.55,1.55,0,0,0,1.65,1.68,3.18,3.18,0,0,0,1.34-.25l.15.63a3.92,3.92,0,0,1-1.61.3,2.25,2.25,0,0,1-2.37-2.44,2.35,2.35,0,0,1,2.26-2.61,2.05,2.05,0,0,1,2,2.28,3.32,3.32,0,0,1,0,.41Zm2.57-.63a1.25,1.25,0,0,0-1.22-1.43,1.46,1.46,0,0,0-1.34,1.43Z"/>
    <path class="bbb80932-d6db-4807-96ea-ba4ced1e41bf" d="M68.8,153.61A2.31,2.31,0,0,0,70,154c.63,0,.93-.32.93-.72s-.25-.65-.89-.89c-.87-.31-1.28-.79-1.28-1.37a1.49,1.49,0,0,1,1.66-1.42,2.42,2.42,0,0,1,1.19.3l-.22.64a1.88,1.88,0,0,0-1-.28c-.51,0-.8.3-.8.66s.29.58.91.82c.84.32,1.27.74,1.27,1.46s-.66,1.45-1.8,1.45a2.76,2.76,0,0,1-1.36-.33Z"/>
    <path class="bbb80932-d6db-4807-96ea-ba4ced1e41bf" d="M73.94,148.28v1.39h1.25v.67H73.94V153c0,.6.16.94.65.94a2,2,0,0,0,.51-.06l0,.66a2.15,2.15,0,0,1-.78.12,1.2,1.2,0,0,1-.94-.37,1.79,1.79,0,0,1-.34-1.26v-2.64h-.75v-.67h.75v-1.16Z"/>
    <path class="bbb80932-d6db-4807-96ea-ba4ced1e41bf" d="M81,154.51l-.07-.61h0a1.8,1.8,0,0,1-1.47.72,1.38,1.38,0,0,1-1.48-1.39c0-1.17,1-1.81,2.9-1.8v-.1a1,1,0,0,0-1.1-1.12,2.4,2.4,0,0,0-1.25.36l-.2-.58a3,3,0,0,1,1.58-.43c1.48,0,1.84,1,1.84,2v1.81a6.81,6.81,0,0,0,.08,1.16ZM80.85,152c-.95,0-2,.15-2,1.09a.78.78,0,0,0,.83.84,1.2,1.2,0,0,0,1.16-.81.92.92,0,0,0,0-.28Z"/>
    <path class="bbb80932-d6db-4807-96ea-ba4ced1e41bf" d="M83.13,151c0-.5,0-.91,0-1.31h.78l0,.8h0a1.75,1.75,0,0,1,1.59-.91c.67,0,1.71.4,1.71,2.06v2.89h-.88v-2.79c0-.78-.29-1.43-1.12-1.43a1.25,1.25,0,0,0-1.18.9,1.27,1.27,0,0,0-.06.41v2.91h-.87Z"/>
    <path class="bbb80932-d6db-4807-96ea-ba4ced1e41bf" d="M92.85,147.42v5.84c0,.43,0,.92,0,1.25H92.1l0-.84h0a1.79,1.79,0,0,1-1.65,1,2.21,2.21,0,0,1-2.06-2.46,2.31,2.31,0,0,1,2.16-2.6,1.62,1.62,0,0,1,1.46.74h0v-2.88ZM92,151.64a1.55,1.55,0,0,0,0-.37,1.29,1.29,0,0,0-1.27-1c-.91,0-1.44.8-1.44,1.87s.47,1.79,1.42,1.79a1.32,1.32,0,0,0,1.29-1,1.53,1.53,0,0,0,0-.38Z"/>
    <path class="bbb80932-d6db-4807-96ea-ba4ced1e41bf" d="M96.44,151.25c0-.62,0-1.12,0-1.58h.79l0,.83h0a1.88,1.88,0,0,1,1.71-.94A2.19,2.19,0,0,1,101,152c0,1.74-1.06,2.6-2.2,2.6a1.68,1.68,0,0,1-1.48-.76h0v2.63h-.87Zm.87,1.29a2,2,0,0,0,0,.36,1.34,1.34,0,0,0,1.31,1c.93,0,1.47-.76,1.47-1.87s-.51-1.8-1.44-1.8a1.39,1.39,0,0,0-1.32,1.09,1.09,1.09,0,0,0-.06.36Z"/>
    <path class="bbb80932-d6db-4807-96ea-ba4ced1e41bf" d="M106.5,152.05a2.37,2.37,0,0,1-2.41,2.57,2.3,2.3,0,0,1-2.31-2.49,2.36,2.36,0,0,1,2.39-2.57A2.29,2.29,0,0,1,106.5,152.05Zm-3.83,0c0,1.06.6,1.86,1.46,1.86s1.47-.79,1.47-1.88c0-.82-.41-1.86-1.45-1.86S102.67,151.18,102.67,152.1Z"/>
    <path class="bbb80932-d6db-4807-96ea-ba4ced1e41bf" d="M107.5,153.61a2.27,2.27,0,0,0,1.15.35c.64,0,.94-.32.94-.72s-.25-.65-.9-.89c-.86-.31-1.27-.79-1.27-1.37a1.48,1.48,0,0,1,1.66-1.42,2.42,2.42,0,0,1,1.19.3l-.22.64a1.88,1.88,0,0,0-1-.28c-.52,0-.81.3-.81.66s.29.58.92.82c.84.32,1.27.74,1.27,1.46s-.66,1.45-1.81,1.45a2.72,2.72,0,0,1-1.35-.33Z"/>
    <path class="bbb80932-d6db-4807-96ea-ba4ced1e41bf" d="M112.63,148.28v1.39h1.26v.67h-1.26V153c0,.6.17.94.66.94a2,2,0,0,0,.51-.06l0,.66a2.15,2.15,0,0,1-.78.12,1.18,1.18,0,0,1-.94-.37,1.79,1.79,0,0,1-.34-1.26v-2.64H111v-.67h.75v-1.16Z"/>
    <path class="bbb80932-d6db-4807-96ea-ba4ced1e41bf" d="M115.94,148.28v1.39h1.26v.67h-1.26V153c0,.6.17.94.66.94a2,2,0,0,0,.51-.06l0,.66a2.15,2.15,0,0,1-.78.12,1.18,1.18,0,0,1-.94-.37,1.79,1.79,0,0,1-.34-1.26v-2.64h-.75v-.67h.75v-1.16Z"/>
    <path class="bbb80932-d6db-4807-96ea-ba4ced1e41bf" d="M118.62,152.25a1.56,1.56,0,0,0,1.66,1.68,3.18,3.18,0,0,0,1.34-.25l.15.63a3.92,3.92,0,0,1-1.61.3,2.25,2.25,0,0,1-2.37-2.44,2.35,2.35,0,0,1,2.26-2.61,2.05,2.05,0,0,1,2,2.28,3.32,3.32,0,0,1,0,.41Zm2.58-.63a1.25,1.25,0,0,0-1.22-1.43,1.45,1.45,0,0,0-1.34,1.43Z"/>
    <path class="bbb80932-d6db-4807-96ea-ba4ced1e41bf" d="M123,153.61a2.27,2.27,0,0,0,1.15.35c.64,0,.94-.32.94-.72s-.25-.65-.9-.89c-.87-.31-1.27-.79-1.27-1.37a1.48,1.48,0,0,1,1.66-1.42,2.42,2.42,0,0,1,1.19.3l-.22.64a1.88,1.88,0,0,0-1-.28c-.52,0-.81.3-.81.66s.29.58.92.82c.84.32,1.27.74,1.27,1.46s-.66,1.45-1.81,1.45a2.72,2.72,0,0,1-1.35-.33Z"/>
    <path class="bbb80932-d6db-4807-96ea-ba4ced1e41bf" d="M128.16,148.28v1.39h1.26v.67h-1.26V153c0,.6.17.94.66.94a2,2,0,0,0,.51-.06l0,.66a2.15,2.15,0,0,1-.78.12,1.18,1.18,0,0,1-.94-.37,1.79,1.79,0,0,1-.34-1.26v-2.64h-.75v-.67h.75v-1.16Z"/>
    <path class="bbb80932-d6db-4807-96ea-ba4ced1e41bf" d="M132.62,154.51v-4.17H132v-.67h.67v-.26a1.94,1.94,0,0,1,2.11-2.1,2.33,2.33,0,0,1,1.23.32l-.25.66a1.94,1.94,0,0,0-1-.27c-.93,0-1.2.64-1.2,1.41v.24h2.81v4.84h-.87v-4.17h-1.94v4.17Z"/>
    <path class="bbb80932-d6db-4807-96ea-ba4ced1e41bf" d="M137.77,147.42h.87v7.09h-.87Z"/>
    <path class="bbb80932-d6db-4807-96ea-ba4ced1e41bf" d="M140.61,152.25a1.55,1.55,0,0,0,1.66,1.68,3.18,3.18,0,0,0,1.34-.25l.15.63a3.92,3.92,0,0,1-1.61.3,2.25,2.25,0,0,1-2.37-2.44,2.34,2.34,0,0,1,2.26-2.61,2.05,2.05,0,0,1,2,2.28,3.32,3.32,0,0,1,0,.41Zm2.58-.63a1.25,1.25,0,0,0-1.22-1.43,1.46,1.46,0,0,0-1.35,1.43Z"/>
    <path class="bbb80932-d6db-4807-96ea-ba4ced1e41bf" d="M148.31,148.28v1.39h1.26v.67h-1.26V153c0,.6.17.94.66.94a2,2,0,0,0,.51-.06l0,.66a2.15,2.15,0,0,1-.78.12,1.22,1.22,0,0,1-1-.37,1.79,1.79,0,0,1-.33-1.26v-2.64h-.75v-.67h.75v-1.16Z"/>
    <path class="bbb80932-d6db-4807-96ea-ba4ced1e41bf" d="M154.88,152.05a2.37,2.37,0,0,1-2.41,2.57,2.3,2.3,0,0,1-2.31-2.49,2.36,2.36,0,0,1,2.39-2.57A2.29,2.29,0,0,1,154.88,152.05Zm-3.83,0c0,1.06.6,1.86,1.46,1.86s1.47-.79,1.47-1.88c0-.82-.41-1.86-1.45-1.86S151.05,151.18,151.05,152.1Z"/>
    <path class="bbb80932-d6db-4807-96ea-ba4ced1e41bf" d="M158,153.61a2.27,2.27,0,0,0,1.15.35c.64,0,.94-.32.94-.72s-.25-.65-.9-.89c-.86-.31-1.27-.79-1.27-1.37a1.48,1.48,0,0,1,1.66-1.42,2.42,2.42,0,0,1,1.19.3l-.22.64a1.88,1.88,0,0,0-1-.28c-.52,0-.81.3-.81.66s.29.58.92.82c.84.32,1.27.74,1.27,1.46s-.66,1.45-1.81,1.45a2.72,2.72,0,0,1-1.35-.33Z"/>
    <path class="bbb80932-d6db-4807-96ea-ba4ced1e41bf" d="M164.75,154.51l-.07-.61h0a1.8,1.8,0,0,1-1.48.72,1.38,1.38,0,0,1-1.47-1.39c0-1.17,1-1.81,2.9-1.8v-.1a1,1,0,0,0-1.1-1.12,2.35,2.35,0,0,0-1.25.36l-.2-.58a3,3,0,0,1,1.58-.43c1.48,0,1.84,1,1.84,2v1.81a6.81,6.81,0,0,0,.08,1.16Zm-.13-2.47c-1,0-2,.15-2,1.09a.77.77,0,0,0,.82.84,1.2,1.2,0,0,0,1.17-.81.92.92,0,0,0,.05-.28Z"/>
    <path class="bbb80932-d6db-4807-96ea-ba4ced1e41bf" d="M167.15,149.67l.95,2.72a12.45,12.45,0,0,1,.39,1.24h0c.11-.4.25-.8.41-1.24l.94-2.72h.92l-1.9,4.84h-.84l-1.83-4.84Z"/>
    <path class="bbb80932-d6db-4807-96ea-ba4ced1e41bf" d="M172,152.25a1.55,1.55,0,0,0,1.66,1.68,3.18,3.18,0,0,0,1.34-.25l.15.63a3.92,3.92,0,0,1-1.61.3,2.24,2.24,0,0,1-2.37-2.44,2.34,2.34,0,0,1,2.26-2.61,2.05,2.05,0,0,1,2,2.28,3.32,3.32,0,0,1,0,.41Zm2.58-.63a1.25,1.25,0,0,0-1.22-1.43,1.46,1.46,0,0,0-1.35,1.43Z"/>
    <path class="bbb80932-d6db-4807-96ea-ba4ced1e41bf" d="M181.33,154.51l-.07-.61h0a1.8,1.8,0,0,1-1.48.72,1.38,1.38,0,0,1-1.48-1.39c0-1.17,1-1.81,2.91-1.8v-.1a1,1,0,0,0-1.1-1.12,2.41,2.41,0,0,0-1.26.36l-.2-.58a3,3,0,0,1,1.59-.43c1.48,0,1.84,1,1.84,2v1.81a6.81,6.81,0,0,0,.08,1.16ZM181.2,152c-1,0-2,.15-2,1.09a.78.78,0,0,0,.83.84,1.2,1.2,0,0,0,1.17-.81.92.92,0,0,0,0-.28Z"/>
    <path class="bbb80932-d6db-4807-96ea-ba4ced1e41bf" d="M185.59,151c0-.5,0-.91,0-1.31h.77l0,.78h0a1.67,1.67,0,0,1,1.52-.89,1.43,1.43,0,0,1,1.37,1h0a2,2,0,0,1,.54-.63,1.65,1.65,0,0,1,1.07-.34c.64,0,1.59.42,1.59,2.1v2.85h-.86v-2.74c0-.93-.34-1.49-1-1.49a1.14,1.14,0,0,0-1,.8,1.45,1.45,0,0,0-.07.44v3h-.86v-2.9c0-.77-.34-1.33-1-1.33a1.31,1.31,0,0,0-1.16,1.31v2.92h-.86Z"/>
    <path class="bbb80932-d6db-4807-96ea-ba4ced1e41bf" d="M196.61,154.51l-.07-.61h0a1.8,1.8,0,0,1-1.48.72,1.38,1.38,0,0,1-1.48-1.39c0-1.17,1-1.81,2.91-1.8v-.1a1,1,0,0,0-1.1-1.12,2.41,2.41,0,0,0-1.26.36l-.2-.58a3,3,0,0,1,1.59-.43c1.48,0,1.84,1,1.84,2v1.81a6.81,6.81,0,0,0,.08,1.16Zm-.13-2.47c-1,0-2,.15-2,1.09a.78.78,0,0,0,.83.84,1.2,1.2,0,0,0,1.17-.81.92.92,0,0,0,0-.28Z"/>
    <path class="bbb80932-d6db-4807-96ea-ba4ced1e41bf" d="M199.77,148.28v1.39H201v.67h-1.26V153c0,.6.17.94.66.94a2,2,0,0,0,.51-.06l0,.66a2.15,2.15,0,0,1-.78.12,1.22,1.22,0,0,1-.95-.37,1.79,1.79,0,0,1-.34-1.26v-2.64h-.75v-.67h.75v-1.16Z"/>
    <path class="bbb80932-d6db-4807-96ea-ba4ced1e41bf" d="M205.41,154.33a3.24,3.24,0,0,1-1.39.28,2.29,2.29,0,0,1-2.4-2.47,2.45,2.45,0,0,1,2.59-2.57,2.94,2.94,0,0,1,1.22.25l-.2.68a2,2,0,0,0-1-.23,1.82,1.82,0,0,0,0,3.64,2.5,2.5,0,0,0,1.08-.24Z"/>
    <path class="bbb80932-d6db-4807-96ea-ba4ced1e41bf" d="M206.44,147.42h.88v3h0a1.63,1.63,0,0,1,.63-.62,1.81,1.81,0,0,1,.9-.25c.65,0,1.69.4,1.69,2.07v2.88h-.88v-2.78c0-.78-.29-1.44-1.12-1.44a1.26,1.26,0,0,0-1.18.88,1.07,1.07,0,0,0-.06.42v2.92h-.88Z"/>
    <path class="bbb80932-d6db-4807-96ea-ba4ced1e41bf" d="M212.48,152.25a1.55,1.55,0,0,0,1.66,1.68,3.18,3.18,0,0,0,1.34-.25l.15.63a3.92,3.92,0,0,1-1.61.3,2.25,2.25,0,0,1-2.38-2.44,2.35,2.35,0,0,1,2.27-2.61,2.05,2.05,0,0,1,2,2.28,3.32,3.32,0,0,1,0,.41Zm2.58-.63a1.25,1.25,0,0,0-1.22-1.43,1.46,1.46,0,0,0-1.35,1.43Z"/>
    <path class="bbb80932-d6db-4807-96ea-ba4ced1e41bf" d="M221.18,147.42v5.84c0,.43,0,.92,0,1.25h-.79l0-.84h0a1.79,1.79,0,0,1-1.65,1,2.21,2.21,0,0,1-2.07-2.46,2.32,2.32,0,0,1,2.17-2.6,1.62,1.62,0,0,1,1.46.74h0v-2.88Zm-.88,4.22a1.55,1.55,0,0,0,0-.37,1.29,1.29,0,0,0-1.27-1c-.91,0-1.45.8-1.45,1.87s.48,1.79,1.43,1.79a1.32,1.32,0,0,0,1.29-1,1.53,1.53,0,0,0,0-.38Z"/>
    <path class="bbb80932-d6db-4807-96ea-ba4ced1e41bf" d="M15.73,165.76h0a1.69,1.69,0,0,1-1.57.86,2.21,2.21,0,0,1-2.05-2.45,2.32,2.32,0,0,1,2.19-2.61,1.57,1.57,0,0,1,1.48.84h0l0-.73h.83c0,.41,0,.83,0,1.33v5.49h-.88Zm0-2.13a1.5,1.5,0,0,0,0-.37,1.27,1.27,0,0,0-1.25-1c-.91,0-1.46.77-1.46,1.86s.46,1.8,1.43,1.8a1.32,1.32,0,0,0,1.26-1,1.47,1.47,0,0,0,.06-.42Z"/>
    <path class="bbb80932-d6db-4807-96ea-ba4ced1e41bf" d="M22.11,165.19c0,.5,0,.94,0,1.32h-.78l-.05-.79h0a1.82,1.82,0,0,1-1.59.9c-.76,0-1.67-.42-1.67-2.12v-2.83h.88v2.68c0,.92.28,1.54,1.08,1.54a1.26,1.26,0,0,0,1.15-.8,1.29,1.29,0,0,0,.08-.45v-3h.88Z"/>
    <path class="bbb80932-d6db-4807-96ea-ba4ced1e41bf" d="M24.07,164.25a1.55,1.55,0,0,0,1.66,1.68,3.16,3.16,0,0,0,1.33-.25l.15.63a3.92,3.92,0,0,1-1.61.3,2.25,2.25,0,0,1-2.37-2.44,2.35,2.35,0,0,1,2.27-2.61,2,2,0,0,1,2,2.28,3.32,3.32,0,0,1,0,.41Zm2.57-.63a1.25,1.25,0,0,0-1.21-1.43,1.46,1.46,0,0,0-1.35,1.43Z"/>
    <path class="bbb80932-d6db-4807-96ea-ba4ced1e41bf" d="M28.47,165.61a2.31,2.31,0,0,0,1.16.35c.64,0,.93-.32.93-.72s-.25-.65-.89-.89c-.87-.31-1.28-.79-1.28-1.37a1.49,1.49,0,0,1,1.67-1.42,2.4,2.4,0,0,1,1.18.3l-.22.64a1.87,1.87,0,0,0-1-.28c-.52,0-.81.3-.81.66s.29.58.92.82c.83.32,1.26.74,1.26,1.46s-.66,1.45-1.8,1.45a2.76,2.76,0,0,1-1.36-.33Z"/>
    <path class="bbb80932-d6db-4807-96ea-ba4ced1e41bf" d="M33.61,160.29v1.38h1.25v.67H33.61V165c0,.6.17.94.66.94a1.81,1.81,0,0,0,.5-.06l0,.66a2.05,2.05,0,0,1-.77.12,1.22,1.22,0,0,1-.95-.37,1.79,1.79,0,0,1-.34-1.26v-2.64H32v-.67h.75v-1.16Z"/>
    <path class="bbb80932-d6db-4807-96ea-ba4ced1e41bf" d="M36.84,160.32a.55.55,0,0,1-1.09,0,.53.53,0,0,1,.55-.55A.52.52,0,0,1,36.84,160.32Zm-1,6.19v-4.84h.88v4.84Z"/>
    <path class="bbb80932-d6db-4807-96ea-ba4ced1e41bf" d="M42.57,164.05a2.36,2.36,0,0,1-2.4,2.57,2.3,2.3,0,0,1-2.32-2.49,2.36,2.36,0,0,1,2.39-2.57A2.29,2.29,0,0,1,42.57,164.05Zm-3.83,0c0,1.06.61,1.86,1.46,1.86s1.47-.79,1.47-1.88c0-.82-.41-1.86-1.45-1.86S38.74,163.18,38.74,164.1Z"/>
    <path class="bbb80932-d6db-4807-96ea-ba4ced1e41bf" d="M43.69,163c0-.5,0-.91,0-1.31h.78l0,.8h0a1.75,1.75,0,0,1,1.59-.91c.67,0,1.71.4,1.71,2.06v2.89h-.88v-2.79c0-.78-.29-1.43-1.12-1.43a1.25,1.25,0,0,0-1.18.9,1.27,1.27,0,0,0-.06.41v2.91h-.87Z"/>
    <path class="bbb80932-d6db-4807-96ea-ba4ced1e41bf" d="M54,166.51,54,165.9h0a1.8,1.8,0,0,1-1.47.72A1.38,1.38,0,0,1,51,165.23c0-1.17,1-1.81,2.9-1.8v-.1a1,1,0,0,0-1.1-1.12,2.38,2.38,0,0,0-1.25.36l-.2-.58a3,3,0,0,1,1.58-.43c1.48,0,1.84,1,1.84,2v1.81a6.81,6.81,0,0,0,.08,1.16ZM53.9,164c-1,0-2,.15-2,1.09a.77.77,0,0,0,.83.84,1.2,1.2,0,0,0,1.16-.81.92.92,0,0,0,0-.28Z"/>
    <path class="bbb80932-d6db-4807-96ea-ba4ced1e41bf" d="M56.18,163c0-.5,0-.91,0-1.31h.78l0,.8h0a1.78,1.78,0,0,1,1.6-.91c.67,0,1.71.4,1.71,2.06v2.89h-.88v-2.79c0-.78-.29-1.43-1.12-1.43a1.25,1.25,0,0,0-1.18.9,1.27,1.27,0,0,0-.06.41v2.91h-.87Z"/>
    <path class="bbb80932-d6db-4807-96ea-ba4ced1e41bf" d="M64.4,166.51l-.07-.61h0a1.8,1.8,0,0,1-1.48.72,1.38,1.38,0,0,1-1.47-1.39c0-1.17,1-1.81,2.9-1.8v-.1a1,1,0,0,0-1.1-1.12,2.35,2.35,0,0,0-1.25.36l-.2-.58a3,3,0,0,1,1.58-.43c1.48,0,1.84,1,1.84,2v1.81a6.81,6.81,0,0,0,.08,1.16ZM64.27,164c-1,0-2,.15-2,1.09a.77.77,0,0,0,.82.84,1.2,1.2,0,0,0,1.17-.81.92.92,0,0,0,0-.28Z"/>
    <path class="bbb80932-d6db-4807-96ea-ba4ced1e41bf" d="M66.54,159.42h.88v7.09h-.88Z"/>
    <path class="bbb80932-d6db-4807-96ea-ba4ced1e41bf" d="M69.22,161.67l1.06,2.86c.11.32.23.7.31,1h0c.09-.29.19-.66.31-1l1-2.84h.93l-1.32,3.45a7.37,7.37,0,0,1-1.66,3,2.38,2.38,0,0,1-1.08.57l-.21-.74a2.4,2.4,0,0,0,.76-.43,2.67,2.67,0,0,0,.74-1,.63.63,0,0,0,.07-.21.77.77,0,0,0-.06-.23l-1.78-4.46Z"/>
    <path class="bbb80932-d6db-4807-96ea-ba4ced1e41bf" d="M73.44,165.61a2.24,2.24,0,0,0,1.15.35c.64,0,.94-.32.94-.72s-.25-.65-.9-.89c-.87-.31-1.28-.79-1.28-1.37A1.49,1.49,0,0,1,75,161.56a2.42,2.42,0,0,1,1.19.3l-.22.64a1.88,1.88,0,0,0-1-.28c-.52,0-.81.3-.81.66s.29.58.92.82c.84.32,1.27.74,1.27,1.46s-.66,1.45-1.81,1.45a2.76,2.76,0,0,1-1.36-.33Z"/>
    <path class="bbb80932-d6db-4807-96ea-ba4ced1e41bf" d="M78.49,160.32a.55.55,0,0,1-1.09,0,.53.53,0,0,1,.55-.55A.52.52,0,0,1,78.49,160.32Zm-1,6.19v-4.84h.88v4.84Z"/>
    <path class="bbb80932-d6db-4807-96ea-ba4ced1e41bf" d="M79.73,165.61a2.31,2.31,0,0,0,1.16.35c.64,0,.94-.32.94-.72s-.25-.65-.9-.89c-.87-.31-1.28-.79-1.28-1.37a1.49,1.49,0,0,1,1.67-1.42,2.42,2.42,0,0,1,1.19.3l-.22.64a1.88,1.88,0,0,0-1-.28c-.52,0-.81.3-.81.66s.29.58.92.82c.84.32,1.27.74,1.27,1.46s-.66,1.45-1.81,1.45a2.76,2.76,0,0,1-1.36-.33Z"/>
    <path class="bbb80932-d6db-4807-96ea-ba4ced1e41bf" d="M83.49,166a.59.59,0,0,1,.6-.63.63.63,0,1,1-.6.63Z"/>
  </g>
</svg>
